<?xml version="1.0" standalone="no"?>
<!DOCTYPE svg PUBLIC "-//W3C//DTD SVG 1.1//EN" "http://www.w3.org/Graphics/SVG/1.1/DTD/svg11.dtd" >
<svg>
<metadata>
Created by FontForge 20120731 at Wed Dec 23 15:31:46 2015
 By root
Copyright (C) 2001, 2008 Hoefler &#38; Frere-Jones. http://www.typography.com
</metadata>
<defs>
<font id="GothamXNarrow-XLight" horiz-adv-x="505" >
  <font-face 
    font-family="Gotham XNarrow XLight"
    font-weight="275"
    font-stretch="condensed"
    units-per-em="1000"
    panose-1="0 0 0 0 0 0 0 0 0 0"
    ascent="800"
    descent="-200"
    x-height="518"
    cap-height="700"
    bbox="-16 -200 849 932"
    underline-thickness="50"
    underline-position="-50"
    stemh="28"
    stemv="31"
    unicode-range="U+0020-FB04"
  />
<missing-glyph 
d="M2 -200v1000h500v-1000h-500zM73 750l179 -390l179 390h-358zM52 -76l172 376l-172 376v-752zM452 676l-172 -376l172 -376v752zM252 240l-179 -390h358z" />
    <glyph glyph-name="f_f" unicode="ff" horiz-adv-x="485" 
d="M331 0v490h-60v28h60v65c0 48 11 82 34 104c17 19 42 28 75 28c14 0 27 -3 38 -6v-29c-11 4 -26 6 -38 6c-52 0 -78 -33 -78 -104v-64h112v-28h-112v-490h-31zM89 0v490h-60v28h60v65c0 48 12 82 33 104c19 19 44 28 76 28c14 0 27 -3 38 -6v-29c-11 4 -26 6 -38 6
c-52 0 -78 -33 -78 -104v-64h112v-28h-112v-490h-31z" />
    <glyph glyph-name="fi" unicode="fi" horiz-adv-x="415" 
d="M89 0v490h-60v28h60v65c0 48 12 82 33 104c19 19 44 28 76 28c14 0 27 -3 38 -6v-29c-11 4 -26 6 -38 6c-52 0 -78 -33 -78 -104v-64h112v-28h-112v-490h-31zM313 0v518h30v-518h-30zM310 644v62h36v-62h-36z" />
    <glyph glyph-name="fl" unicode="fl" horiz-adv-x="415" 
d="M89 0v490h-60v28h60v65c0 48 12 82 33 104c19 19 44 28 76 28c14 0 27 -3 38 -6v-29c-11 4 -26 6 -38 6c-52 0 -78 -33 -78 -104v-64h112v-28h-112v-490h-31zM313 0v713h30v-713h-30z" />
    <glyph glyph-name="f_f_i" unicode="ffi" horiz-adv-x="656" 
d="M331 0v490h-60v28h60v65c0 48 11 82 34 104c17 19 42 28 75 28c14 0 27 -3 38 -6v-29c-11 4 -26 6 -38 6c-52 0 -78 -33 -78 -104v-64h112v-28h-112v-490h-31zM89 0v490h-60v28h60v65c0 48 12 82 33 104c19 19 44 28 76 28c14 0 27 -3 38 -6v-29c-11 4 -26 6 -38 6
c-52 0 -78 -33 -78 -104v-64h112v-28h-112v-490h-31zM555 0v518h30v-518h-30zM552 644v62h36v-62h-36z" />
    <glyph glyph-name="f_f_l" unicode="ffl" horiz-adv-x="656" 
d="M331 0v490h-60v28h60v65c0 48 11 82 34 104c17 19 42 28 75 28c14 0 27 -3 38 -6v-29c-11 4 -26 6 -38 6c-52 0 -78 -33 -78 -104v-64h112v-28h-112v-490h-31zM89 0v490h-60v28h60v65c0 48 12 82 33 104c19 19 44 28 76 28c14 0 27 -3 38 -6v-29c-11 4 -26 6 -38 6
c-52 0 -78 -33 -78 -104v-64h112v-28h-112v-490h-31zM555 0v713h30v-713h-30z" />
    <glyph glyph-name=".notdef" 
d="M2 -200v1000h500v-1000h-500zM73 750l179 -390l179 390h-358zM52 -76l172 376l-172 376v-752zM452 676l-172 -376l172 -376v752zM252 240l-179 -390h358z" />
    <glyph glyph-name="A" unicode="A" horiz-adv-x="524" 
d="M34 0l212 705h32l212 -705h-33l-61 205h-269l-61 -205h-32zM136 234h251l-125 423z" />
    <glyph glyph-name="B" unicode="B" horiz-adv-x="487" 
d="M74 0v700h144c70 0 124 -20 159 -55c31 -31 46 -72 46 -120v-2c0 -92 -57 -148 -132 -168c91 -18 151 -80 151 -171v-2c0 -110 -80 -182 -226 -182h-142zM391 522v2c0 91 -62 147 -174 147h-111v-303h110c110 0 175 60 175 154zM410 184c0 94 -68 155 -188 155h-116v-310
h110c127 0 194 57 194 153v2z" />
    <glyph glyph-name="C" unicode="C" horiz-adv-x="459" 
d="M282 -6c-133 0 -231 124 -231 351v9c0 223 107 352 237 352c62 0 104 -25 136 -55l-19 -24c-30 28 -67 50 -118 50c-112 0 -204 -125 -204 -323v-8c0 -206 88 -323 200 -323c51 0 91 25 125 57l19 -23c-37 -35 -83 -63 -145 -63z" />
    <glyph glyph-name="D" unicode="D" horiz-adv-x="521" 
d="M74 0v700h115c170 0 281 -129 281 -344v-12c0 -213 -110 -344 -283 -344h-113zM187 671h-81v-642h79c158 0 253 120 253 315v12c0 194 -97 315 -251 315z" />
    <glyph glyph-name="E" unicode="E" horiz-adv-x="436" 
d="M74 0v700h316v-29h-284v-303h258v-29h-258v-310h288v-29h-320z" />
    <glyph glyph-name="F" unicode="F" horiz-adv-x="412" 
d="M74 0v700h309v-29h-277v-313h251v-29h-251v-329h-32z" />
    <glyph glyph-name="G" unicode="G" horiz-adv-x="515" 
d="M304 -8c-143 0 -253 120 -253 353v9c0 221 112 354 250 354c61 0 102 -17 144 -50l-19 -27c-33 28 -72 48 -125 48c-117 0 -218 -124 -218 -325v-8c0 -214 100 -325 223 -325c47 0 90 18 115 37v265h-155v30h186v-310c-39 -30 -90 -51 -148 -51z" />
    <glyph glyph-name="H" unicode="H" horiz-adv-x="526" 
d="M74 0v700h32v-333h315v333h32v-700h-32v338h-315v-338h-32z" />
    <glyph glyph-name="I" unicode="I" horiz-adv-x="192" 
d="M81 0v700h32v-700h-32z" />
    <glyph glyph-name="J" unicode="J" horiz-adv-x="329" 
d="M132 -7c-48 0 -88 25 -113 64l24 19c25 -35 53 -54 91 -54c55 0 95 39 95 123v555h31v-549c0 -58 -13 -98 -39 -123c-23 -23 -51 -35 -89 -35z" />
    <glyph glyph-name="K" unicode="K" horiz-adv-x="470" 
d="M74 0v700h32v-433l290 433h37l-210 -310l226 -390h-37l-209 360l-97 -142v-218h-32z" />
    <glyph glyph-name="L" unicode="L" horiz-adv-x="387" 
d="M74 0v700h32v-671h261v-29h-293z" />
    <glyph glyph-name="M" unicode="M" horiz-adv-x="600" 
d="M74 0v700h34l192 -423l192 423h34v-700h-31v635l-194 -425h-3l-193 425v-635h-31z" />
    <glyph glyph-name="N" unicode="N" horiz-adv-x="539" 
d="M74 0v700h31l329 -626v626h30v-700h-26l-333 637v-637h-31z" />
    <glyph glyph-name="O" unicode="O" horiz-adv-x="550" 
d="M275 -9c-131 0 -224 136 -224 354v10c0 218 93 354 224 354s224 -136 224 -354v-10c0 -218 -93 -354 -224 -354zM275 21c111 0 191 127 191 324v10c0 196 -81 324 -191 324s-191 -127 -191 -324v-10c0 -196 81 -324 191 -324z" />
    <glyph glyph-name="P" unicode="P" horiz-adv-x="459" 
d="M74 0v700h128c138 0 225 -84 225 -215c0 -134 -89 -219 -230 -219h-91v-266h-32zM106 294h92c121 0 197 73 197 190c0 118 -78 187 -195 187h-94v-377z" />
    <glyph glyph-name="Q" unicode="Q" horiz-adv-x="554" 
d="M504 3l-22 -21l-70 74c-37 -42 -84 -65 -137 -65c-131 0 -224 136 -224 354v10c0 218 93 354 224 354s224 -136 224 -354v-10c0 -113 -26 -204 -69 -266zM275 21c45 0 85 20 117 57l-98 103l22 20l93 -99c36 56 57 139 57 243v10c0 196 -81 324 -191 324
s-191 -127 -191 -324v-10c0 -196 81 -324 191 -324z" />
    <glyph glyph-name="Q.alt" horiz-adv-x="554" 
d="M468 -90l-94 110c-29 -19 -63 -29 -99 -29c-131 0 -224 136 -224 354v10c0 218 93 354 224 354s224 -136 224 -354v-10c0 -141 -39 -248 -102 -306l111 -128v-1h-40zM275 21c111 0 191 127 191 324v10c0 196 -81 324 -191 324s-191 -127 -191 -324v-10
c0 -196 81 -324 191 -324z" />
    <glyph glyph-name="R" unicode="R" horiz-adv-x="491" 
d="M74 0v700h142c72 0 131 -21 169 -59c34 -34 52 -83 52 -142v-1c0 -110 -60 -176 -158 -198l171 -300h-37l-167 294c-16 -2 -32 -2 -49 -2h-91v-292h-32zM106 321h91c147 0 209 69 209 177v1c0 111 -74 172 -192 172h-108v-350z" />
    <glyph glyph-name="S" unicode="S" horiz-adv-x="433" 
d="M211 -9c-75 0 -135 33 -182 87l22 24c42 -49 95 -81 160 -81c85 0 145 61 145 141v2c0 65 -28 112 -145 181c-120 71 -156 120 -156 201v2c0 89 72 161 171 161c66 0 116 -29 156 -68l-20 -25c-37 37 -80 63 -137 63c-83 0 -138 -59 -138 -130v-2c0 -72 34 -111 143 -176
c130 -77 158 -131 158 -206v-2c0 -98 -74 -172 -177 -172z" />
    <glyph glyph-name="T" unicode="T" horiz-adv-x="394" 
d="M181 0v671h-160v29h352v-29h-160v-671h-32z" />
    <glyph glyph-name="U" unicode="U" horiz-adv-x="521" 
d="M260 -9c-116 0 -191 84 -191 230v479h31v-479c0 -130 64 -201 161 -201s160 69 160 200v480h32v-478c0 -147 -75 -231 -193 -231z" />
    <glyph glyph-name="V" unicode="V" horiz-adv-x="503" 
d="M237 -5l-203 705h33l185 -652l185 652h33l-203 -705h-30z" />
    <glyph glyph-name="W" unicode="W" horiz-adv-x="754" 
d="M198 -5l-159 705h33l141 -643l151 644h27l150 -644l141 643h33l-160 -705h-28l-150 641l-150 -641h-29z" />
    <glyph glyph-name="X" unicode="X" horiz-adv-x="463" 
d="M389 700h35l-173 -339l183 -361h-36l-167 334l-166 -334h-35l182 360l-173 340h35l157 -314z" />
    <glyph glyph-name="Y" unicode="Y" horiz-adv-x="455" 
d="M212 0v297l-195 403h34l177 -370l177 370h34l-195 -403v-297h-32z" />
    <glyph glyph-name="Z" unicode="Z" horiz-adv-x="445" 
d="M44 0v21l318 650h-305v29h344v-20l-319 -651h318v-29h-356z" />
    <glyph glyph-name="a" unicode="a" horiz-adv-x="403" 
d="M173 -9c-78 0 -136 61 -136 159v4c0 101 59 166 159 166c45 0 85 -12 117 -25v68c0 82 -42 132 -121 132c-42 0 -81 -14 -111 -33l-13 26c36 21 80 36 125 36c48 0 84 -15 109 -39c26 -26 41 -66 41 -118v-367h-30v92c-22 -54 -67 -101 -140 -101zM177 19
c78 0 136 76 136 155v91c-34 16 -73 27 -116 27c-84 0 -129 -54 -129 -137v-4c0 -79 42 -132 109 -132z" />
    <glyph glyph-name="a.alt" horiz-adv-x="451" 
d="M208 -8c-93 0 -165 101 -165 262v9c0 161 72 263 165 263c82 0 128 -70 147 -131v123h30v-518h-30v124c-19 -61 -66 -132 -147 -132zM211 20c82 0 146 99 146 234v11c0 135 -64 233 -146 233c-81 0 -137 -93 -137 -235v-8c0 -140 56 -235 137 -235z" />
    <glyph glyph-name="b" unicode="b" horiz-adv-x="451" 
d="M243 -8c-81 0 -127 70 -147 131v-123h-30v713h30v-319c20 61 66 132 147 132c93 0 166 -101 166 -262v-9c0 -161 -71 -263 -166 -263zM240 20c81 0 137 93 137 235v8c0 140 -56 235 -137 235c-82 0 -145 -99 -145 -234v-11c0 -135 64 -233 145 -233z" />
    <glyph glyph-name="c" unicode="c" horiz-adv-x="358" 
d="M219 -8c-101 0 -177 90 -177 262v8c0 168 84 264 180 264c48 0 82 -22 106 -46l-18 -24c-22 23 -50 41 -89 41c-78 0 -148 -88 -148 -236v-7c0 -154 69 -234 147 -233c38 0 66 19 91 43l18 -21c-25 -27 -60 -51 -110 -51z" />
    <glyph glyph-name="d" unicode="d" horiz-adv-x="451" 
d="M208 -8c-93 0 -165 101 -165 262v9c0 161 72 263 165 263c82 0 128 -70 147 -131v318h30v-713h-30v124c-19 -61 -66 -132 -147 -132zM211 20c82 0 146 99 146 234v11c0 135 -64 233 -146 233c-81 0 -137 -93 -137 -235v-8c0 -140 56 -235 137 -235z" />
    <glyph glyph-name="e" unicode="e" horiz-adv-x="409" 
d="M227 -8c-101 0 -185 92 -185 262v5c0 171 78 267 168 267c96 0 160 -102 160 -258v-21h-297c2 -146 73 -227 157 -227c43 0 80 17 112 47l18 -23c-38 -33 -80 -52 -133 -52zM73 275h266c-1 124 -51 223 -130 223c-73 0 -132 -85 -136 -223z" />
    <glyph glyph-name="f" unicode="f" horiz-adv-x="243" 
d="M89 0v490h-60v28h60v65c0 48 12 82 33 104c19 19 44 28 76 28c14 0 27 -3 38 -6v-29c-11 4 -26 6 -38 6c-52 0 -78 -33 -78 -104v-64h112v-28h-112v-490h-31z" />
    <glyph glyph-name="g" unicode="g" horiz-adv-x="448" 
d="M210 -140c-47 0 -98 12 -148 38l13 28c40 -24 92 -37 136 -37c89 0 141 46 141 145v116c-20 -52 -67 -121 -145 -121c-92 0 -164 99 -164 245v6c0 146 73 246 164 246c79 0 125 -69 145 -121v113h31v-483c0 -59 -16 -101 -45 -131c-29 -29 -73 -44 -128 -44zM210 57
c79 0 144 95 144 217v6c0 123 -65 218 -144 218s-136 -91 -136 -218v-5c0 -127 57 -218 136 -218z" />
    <glyph glyph-name="h" unicode="h" horiz-adv-x="435" 
d="M66 0v713h30v-290c18 51 63 103 137 103c86 0 142 -64 142 -180v-346h-31v339c0 103 -42 160 -117 160c-71 0 -131 -68 -131 -163v-336h-30z" />
    <glyph glyph-name="i" unicode="i" horiz-adv-x="173" 
d="M69 644v62h35v-62h-35zM72 0v518h30v-518h-30z" />
    <glyph glyph-name="j" unicode="j" horiz-adv-x="175" 
d="M71 644v62h36v-62h-36zM15 -142c-12 0 -22 2 -31 5v28c9 -3 19 -5 29 -5c41 0 61 29 61 83v549h30v-554c0 -65 -28 -106 -89 -106z" />
    <glyph glyph-name="k" unicode="k" horiz-adv-x="378" 
d="M66 0v713h30v-516l212 321h35l-147 -218l158 -300h-34l-143 272l-81 -120v-152h-30z" />
    <glyph glyph-name="l" unicode="l" horiz-adv-x="173" 
d="M72 0v713h30v-713h-30z" />
    <glyph glyph-name="m" unicode="m" horiz-adv-x="683" 
d="M66 0v518h30v-92c18 52 60 100 128 100c61 0 106 -36 124 -104c19 52 63 104 137 104c82 0 137 -59 137 -177v-349h-31v342c0 105 -41 157 -109 157s-123 -62 -123 -160v-339h-30v342c0 105 -42 157 -110 157c-67 0 -123 -65 -123 -159v-340h-30z" />
    <glyph glyph-name="n" unicode="n" horiz-adv-x="435" 
d="M66 0v518h30v-95c18 51 63 103 137 103c86 0 142 -64 142 -180v-346h-31v339c0 103 -42 160 -117 160c-71 0 -131 -68 -131 -163v-336h-30z" />
    <glyph glyph-name="o" unicode="o" horiz-adv-x="436" 
d="M218 -8c-101 0 -177 107 -177 264v6c0 157 77 264 177 264c101 0 177 -107 177 -264v-6c0 -157 -76 -264 -177 -264zM218 20c83 0 146 99 146 236v6c0 137 -64 236 -146 236s-146 -99 -146 -236v-6c0 -137 65 -236 146 -236z" />
    <glyph glyph-name="p" unicode="p" horiz-adv-x="451" 
d="M66 -138v656h30v-124c20 61 66 132 147 132c93 0 166 -101 166 -262v-9c0 -161 -73 -263 -166 -263c-81 0 -127 70 -147 131v-261h-30zM240 20c81 0 137 93 137 235v8c0 140 -56 235 -137 235c-82 0 -145 -99 -145 -234v-11c0 -135 64 -233 145 -233z" />
    <glyph glyph-name="q" unicode="q" horiz-adv-x="451" 
d="M355 -138v262c-19 -61 -66 -132 -147 -132c-93 0 -165 101 -165 262v9c0 161 72 263 165 263c82 0 128 -70 147 -131v123h30v-656h-30zM211 20c82 0 146 99 146 234v11c0 135 -64 233 -146 233c-81 0 -137 -93 -137 -235v-8c0 -140 56 -235 137 -235z" />
    <glyph glyph-name="r" unicode="r" horiz-adv-x="259" 
d="M66 0v518h30v-104c21 60 72 113 146 111v-32h-3c-79 0 -143 -69 -143 -172v-321h-30z" />
    <glyph glyph-name="s" unicode="s" horiz-adv-x="345" 
d="M166 -6c-58 0 -105 23 -147 64l20 23c40 -39 78 -59 129 -59c64 0 110 44 110 101v2c0 49 -22 81 -113 129c-95 51 -125 90 -125 148v1c0 70 55 122 136 122c54 0 96 -22 131 -54l-20 -23c-32 30 -67 49 -112 49c-63 0 -104 -41 -104 -93v-1c0 -46 25 -76 110 -122
c101 -55 128 -92 128 -156v-1c0 -74 -60 -130 -143 -130z" />
    <glyph glyph-name="t" unicode="t" horiz-adv-x="262" 
d="M184 -5c-61 0 -100 32 -100 104v391h-57v28h57v155h31v-155h112v-28h-112v-387c0 -59 27 -80 71 -80c13 0 28 3 42 8v-28c-14 -6 -30 -8 -44 -8z" />
    <glyph glyph-name="u" unicode="u" horiz-adv-x="435" 
d="M202 -8c-86 0 -141 64 -141 180v346h30v-339c0 -103 42 -160 116 -160c72 0 131 68 131 163v336h31v-518h-31v95c-17 -51 -62 -103 -136 -103z" />
    <glyph glyph-name="v" unicode="v" horiz-adv-x="400" 
d="M187 -3l-157 521h32l138 -472l139 472h32l-158 -521h-26z" />
    <glyph glyph-name="w" unicode="w" horiz-adv-x="598" 
d="M162 -3l-128 521h32l108 -466l113 467h25l112 -467l109 466h31l-127 -521h-27l-111 458l-111 -458h-26z" />
    <glyph glyph-name="x" unicode="x" horiz-adv-x="383" 
d="M69 518l122 -227l122 227h32l-137 -252l145 -266h-33l-130 241l-129 -241h-32l144 265l-137 253h33z" />
    <glyph glyph-name="y" unicode="y" horiz-adv-x="402" 
d="M204 51l137 467h32l-153 -512c-35 -120 -72 -148 -122 -148c-20 0 -44 7 -63 19l12 28c14 -10 32 -18 51 -18c37 0 62 22 92 117l-160 514h32z" />
    <glyph glyph-name="z" unicode="z" horiz-adv-x="350" 
d="M34 0v17l245 474h-234v27h270v-17l-245 -474h244v-27h-280z" />
    <glyph glyph-name="Aacute" unicode="&#xc1;" horiz-adv-x="524" 
d="M34 0l212 705h32l212 -705h-33l-61 205h-269l-61 -205h-32zM136 234h251l-125 423zM248 753l73 103l34 -16l-85 -87h-22z" />
    <glyph glyph-name="aacute" unicode="&#xe1;" horiz-adv-x="403" 
d="M173 -9c-78 0 -136 61 -136 159v4c0 101 59 166 159 166c45 0 85 -12 117 -25v68c0 82 -42 132 -121 132c-42 0 -81 -14 -111 -33l-13 26c36 21 80 36 125 36c48 0 84 -15 109 -39c26 -26 41 -66 41 -118v-367h-30v92c-22 -54 -67 -101 -140 -101zM177 19
c78 0 136 76 136 155v91c-34 16 -73 27 -116 27c-84 0 -129 -54 -129 -137v-4c0 -79 42 -132 109 -132zM192 582l72 121l34 -17l-86 -104h-20z" />
    <glyph glyph-name="aacute.alt" horiz-adv-x="451" 
d="M216 582l72 121l34 -17l-86 -104h-20zM208 -8c-93 0 -165 101 -165 262v9c0 161 72 263 165 263c82 0 128 -70 147 -131v123h30v-518h-30v124c-19 -61 -66 -132 -147 -132zM211 20c82 0 146 99 146 234v11c0 135 -64 233 -146 233c-81 0 -137 -93 -137 -235v-8
c0 -140 56 -235 137 -235z" />
    <glyph glyph-name="Abreve" unicode="&#x102;" horiz-adv-x="524" 
d="M34 0l212 705h32l212 -705h-33l-61 205h-269l-61 -205h-32zM136 234h251l-125 423zM261 755c-56 0 -97 29 -105 82h27c8 -32 32 -54 78 -54s71 22 79 54h26c-7 -53 -48 -82 -105 -82z" />
    <glyph glyph-name="abreve" unicode="&#x103;" horiz-adv-x="403" 
d="M173 -9c-78 0 -136 61 -136 159v4c0 101 59 166 159 166c45 0 85 -12 117 -25v68c0 82 -42 132 -121 132c-42 0 -81 -14 -111 -33l-13 26c36 21 80 36 125 36c48 0 84 -15 109 -39c26 -26 41 -66 41 -118v-367h-30v92c-22 -54 -67 -101 -140 -101zM177 19
c78 0 136 76 136 155v91c-34 16 -73 27 -116 27c-84 0 -129 -54 -129 -137v-4c0 -79 42 -132 109 -132zM204 584c-58 0 -95 37 -102 97h25c8 -38 30 -69 77 -69c48 0 70 31 78 69h25c-7 -60 -44 -97 -103 -97z" />
    <glyph glyph-name="abreve.alt" horiz-adv-x="451" 
d="M208 -8c-93 0 -165 101 -165 262v9c0 161 72 263 165 263c82 0 128 -70 147 -131v123h30v-518h-30v124c-19 -61 -66 -132 -147 -132zM211 20c82 0 146 99 146 234v11c0 135 -64 233 -146 233c-81 0 -137 -93 -137 -235v-8c0 -140 56 -235 137 -235zM230 584
c-58 0 -95 37 -102 97h25c8 -38 30 -69 77 -69c48 0 70 31 78 69h25c-7 -60 -44 -97 -103 -97z" />
    <glyph glyph-name="Acircumflex" unicode="&#xc2;" horiz-adv-x="524" 
d="M34 0l212 705h32l212 -705h-33l-61 205h-269l-61 -205h-32zM136 234h251l-125 423zM166 751l82 99h27l81 -99h-29l-67 69l-66 -69h-28z" />
    <glyph glyph-name="acircumflex" unicode="&#xe2;" horiz-adv-x="403" 
d="M173 -9c-78 0 -136 61 -136 159v4c0 101 59 166 159 166c45 0 85 -12 117 -25v68c0 82 -42 132 -121 132c-42 0 -81 -14 -111 -33l-13 26c36 21 80 36 125 36c48 0 84 -15 109 -39c26 -26 41 -66 41 -118v-367h-30v92c-22 -54 -67 -101 -140 -101zM177 19
c78 0 136 76 136 155v91c-34 16 -73 27 -116 27c-84 0 -129 -54 -129 -137v-4c0 -79 42 -132 109 -132zM115 586l77 120h24l77 -120h-25l-65 86l-63 -86h-25z" />
    <glyph glyph-name="acircumflex.alt" horiz-adv-x="451" 
d="M142 586l77 120h24l77 -120h-25l-65 86l-63 -86h-25zM208 -8c-93 0 -165 101 -165 262v9c0 161 72 263 165 263c82 0 128 -70 147 -131v123h30v-518h-30v124c-19 -61 -66 -132 -147 -132zM211 20c82 0 146 99 146 234v11c0 135 -64 233 -146 233
c-81 0 -137 -93 -137 -235v-8c0 -140 56 -235 137 -235z" />
    <glyph glyph-name="Adieresis" unicode="&#xc4;" horiz-adv-x="524" 
d="M34 0l212 705h32l212 -705h-33l-61 205h-269l-61 -205h-32zM136 234h251l-125 423zM296 764v51h40v-51h-40zM186 764v51h41v-51h-41z" />
    <glyph glyph-name="adieresis" unicode="&#xe4;" horiz-adv-x="403" 
d="M173 -9c-78 0 -136 61 -136 159v4c0 101 59 166 159 166c45 0 85 -12 117 -25v68c0 82 -42 132 -121 132c-42 0 -81 -14 -111 -33l-13 26c36 21 80 36 125 36c48 0 84 -15 109 -39c26 -26 41 -66 41 -118v-367h-30v92c-22 -54 -67 -101 -140 -101zM177 19
c78 0 136 76 136 155v91c-34 16 -73 27 -116 27c-84 0 -129 -54 -129 -137v-4c0 -79 42 -132 109 -132zM236 592v52h38v-52h-38zM134 592v52h39v-52h-39z" />
    <glyph glyph-name="adieresis.alt" horiz-adv-x="451" 
d="M262 592v52h38v-52h-38zM160 592v52h39v-52h-39zM208 -8c-93 0 -165 101 -165 262v9c0 161 72 263 165 263c82 0 128 -70 147 -131v123h30v-518h-30v124c-19 -61 -66 -132 -147 -132zM211 20c82 0 146 99 146 234v11c0 135 -64 233 -146 233c-81 0 -137 -93 -137 -235v-8
c0 -140 56 -235 137 -235z" />
    <glyph glyph-name="AE" unicode="&#xc6;" horiz-adv-x="676" 
d="M7 0l279 700h344v-29h-279v-304h253v-28h-253v-310h283v-29h-315v205h-198l-81 -205h-33zM133 234h186v437h-14z" />
    <glyph glyph-name="ae" unicode="&#xe6;" horiz-adv-x="674" 
d="M175 -9c-81 0 -138 61 -138 159v4c0 101 59 166 159 166c44 0 83 -11 114 -25c0 2 0 64 1 67c-1 86 -45 133 -125 133c-40 0 -77 -12 -107 -29l-12 27c37 19 77 31 120 31c80 0 134 -40 147 -117c29 76 81 119 141 119c96 0 159 -102 159 -258v-21h-296
c3 -147 75 -227 159 -227c43 0 80 17 111 46l17 -23c-39 -33 -78 -51 -130 -51c-69 0 -130 43 -162 125c-27 -68 -82 -126 -158 -126zM338 275h266c-2 123 -51 223 -130 223c-74 0 -131 -85 -136 -223zM178 19c67 0 117 56 144 133c-9 37 -13 78 -13 114
c-34 15 -72 26 -113 26c-83 0 -128 -54 -128 -137v-4c0 -79 41 -132 110 -132z" />
    <glyph glyph-name="AEacute" unicode="&#x1fc;" horiz-adv-x="676" 
d="M377 748l73 103l34 -16l-85 -87h-22zM7 0l279 700h344v-29h-279v-304h253v-28h-253v-310h283v-29h-315v205h-198l-81 -205h-33zM133 234h186v437h-14z" />
    <glyph glyph-name="aeacute" unicode="&#x1fd;" horiz-adv-x="674" 
d="M322 581l72 121l34 -17l-86 -104h-20zM175 -9c-81 0 -138 61 -138 159v4c0 101 59 166 159 166c44 0 83 -11 114 -25c0 2 0 64 1 67c-1 86 -45 133 -125 133c-40 0 -77 -12 -107 -29l-12 27c37 19 77 31 120 31c80 0 134 -40 147 -117c29 76 81 119 141 119
c96 0 159 -102 159 -258v-21h-296c3 -147 75 -227 159 -227c43 0 80 17 111 46l17 -23c-39 -33 -78 -51 -130 -51c-69 0 -130 43 -162 125c-27 -68 -82 -126 -158 -126zM338 275h266c-2 123 -51 223 -130 223c-74 0 -131 -85 -136 -223zM178 19c67 0 117 56 144 133
c-9 37 -13 78 -13 114c-34 15 -72 26 -113 26c-83 0 -128 -54 -128 -137v-4c0 -79 41 -132 110 -132z" />
    <glyph glyph-name="Agrave" unicode="&#xc0;" horiz-adv-x="524" 
d="M34 0l212 705h32l212 -705h-33l-61 205h-269l-61 -205h-32zM136 234h251l-125 423zM276 753h-22l-85 87l34 16z" />
    <glyph glyph-name="agrave" unicode="&#xe0;" horiz-adv-x="403" 
d="M173 -9c-78 0 -136 61 -136 159v4c0 101 59 166 159 166c45 0 85 -12 117 -25v68c0 82 -42 132 -121 132c-42 0 -81 -14 -111 -33l-13 26c36 21 80 36 125 36c48 0 84 -15 109 -39c26 -26 41 -66 41 -118v-367h-30v92c-22 -54 -67 -101 -140 -101zM177 19
c78 0 136 76 136 155v91c-34 16 -73 27 -116 27c-84 0 -129 -54 -129 -137v-4c0 -79 42 -132 109 -132zM198 582l-87 104l34 17l72 -121h-19z" />
    <glyph glyph-name="agrave.alt" horiz-adv-x="451" 
d="M208 -8c-93 0 -165 101 -165 262v9c0 161 72 263 165 263c82 0 128 -70 147 -131v123h30v-518h-30v124c-19 -61 -66 -132 -147 -132zM211 20c82 0 146 99 146 234v11c0 135 -64 233 -146 233c-81 0 -137 -93 -137 -235v-8c0 -140 56 -235 137 -235zM224 582l-87 104
l34 17l72 -121h-19z" />
    <glyph glyph-name="Amacron" unicode="&#x100;" horiz-adv-x="524" 
d="M34 0l212 705h32l212 -705h-33l-61 205h-269l-61 -205h-32zM136 234h251l-125 423zM156 770v28h210v-28h-210z" />
    <glyph glyph-name="amacron" unicode="&#x101;" horiz-adv-x="403" 
d="M173 -9c-78 0 -136 61 -136 159v4c0 101 59 166 159 166c45 0 85 -12 117 -25v68c0 82 -42 132 -121 132c-42 0 -81 -14 -111 -33l-13 26c36 21 80 36 125 36c48 0 84 -15 109 -39c26 -26 41 -66 41 -118v-367h-30v92c-22 -54 -67 -101 -140 -101zM177 19
c78 0 136 76 136 155v91c-34 16 -73 27 -116 27c-84 0 -129 -54 -129 -137v-4c0 -79 42 -132 109 -132zM106 598v28h197v-28h-197z" />
    <glyph glyph-name="amacron.alt" horiz-adv-x="451" 
d="M208 -8c-93 0 -165 101 -165 262v9c0 161 72 263 165 263c82 0 128 -70 147 -131v123h30v-518h-30v124c-19 -61 -66 -132 -147 -132zM211 20c82 0 146 99 146 234v11c0 135 -64 233 -146 233c-81 0 -137 -93 -137 -235v-8c0 -140 56 -235 137 -235zM132 598v28h197v-28
h-197z" />
    <glyph glyph-name="Aogonek" unicode="&#x104;" horiz-adv-x="524" 
d="M497 -103v-22c-6 -1 -10 -1 -12 -1c-48 0 -71 21 -71 51c0 23 15 47 43 75l-61 205h-269l-61 -205h-32l212 705h32l212 -705h-10c-28 -32 -37 -51 -37 -70c0 -21 14 -32 54 -33zM136 234h251l-125 423z" />
    <glyph glyph-name="aogonek" unicode="&#x105;" horiz-adv-x="403" 
d="M354 -103v-22c-6 -1 -10 -1 -12 -1c-48 0 -71 21 -71 51c0 23 15 47 43 75h-1v92c-22 -54 -67 -101 -140 -101c-78 0 -136 61 -136 159v4c0 101 59 166 159 166c45 0 85 -12 117 -25v68c0 82 -42 132 -121 132c-42 0 -81 -14 -111 -33l-13 26c36 21 80 36 125 36
c48 0 84 -15 109 -39c26 -26 41 -66 41 -118v-367h-6c-28 -32 -37 -51 -37 -70c0 -21 14 -32 54 -33zM177 19c78 0 136 76 136 155v91c-34 16 -73 27 -116 27c-84 0 -129 -54 -129 -137v-4c0 -79 42 -132 109 -132z" />
    <glyph glyph-name="aogonek.alt" horiz-adv-x="451" 
d="M397 -103v-22c-6 -1 -10 -1 -12 -1c-48 0 -71 21 -71 51c0 23 15 47 43 75h-2v124c-19 -61 -66 -132 -147 -132c-93 0 -165 101 -165 262v9c0 161 72 263 165 263c82 0 128 -70 147 -131v123h30v-518h-5c-28 -32 -37 -51 -37 -70c0 -21 14 -32 54 -33zM211 20
c82 0 146 99 146 234v11c0 135 -64 233 -146 233c-81 0 -137 -93 -137 -235v-8c0 -140 56 -235 137 -235z" />
    <glyph glyph-name="Aring" unicode="&#xc5;" horiz-adv-x="524" 
d="M34 0l202 671c-35 9 -58 38 -58 74c0 43 36 77 84 77c47 0 83 -34 83 -77c0 -35 -24 -64 -58 -74l203 -671h-33l-61 205h-269l-61 -205h-32zM136 234h251l-125 423zM261 688c36 0 61 25 61 57c0 31 -25 57 -61 57c-35 0 -60 -26 -60 -57c0 -32 25 -57 60 -57z" />
    <glyph glyph-name="aring" unicode="&#xe5;" horiz-adv-x="403" 
d="M173 -9c-78 0 -136 61 -136 159v4c0 101 59 166 159 166c45 0 85 -12 117 -25v68c0 82 -42 132 -121 132c-42 0 -81 -14 -111 -33l-13 26c36 21 80 36 125 36c48 0 84 -15 109 -39c26 -26 41 -66 41 -118v-367h-30v92c-22 -54 -67 -101 -140 -101zM177 19
c78 0 136 76 136 155v91c-34 16 -73 27 -116 27c-84 0 -129 -54 -129 -137v-4c0 -79 42 -132 109 -132zM204 587c-46 0 -80 35 -80 80c0 44 35 79 81 79c45 0 79 -35 79 -79c0 -45 -34 -80 -80 -80zM204 606c35 0 59 26 59 61c0 34 -24 60 -59 60c-34 0 -59 -26 -59 -60
c0 -35 25 -61 59 -61z" />
    <glyph glyph-name="aring.alt" horiz-adv-x="451" 
d="M230 587c-46 0 -80 35 -80 80c0 44 35 79 81 79c45 0 79 -35 79 -79c0 -45 -34 -80 -80 -80zM230 606c35 0 59 26 59 61c0 34 -24 60 -59 60c-34 0 -59 -26 -59 -60c0 -35 25 -61 59 -61zM208 -8c-93 0 -165 101 -165 262v9c0 161 72 263 165 263c82 0 128 -70 147 -131
v123h30v-518h-30v124c-19 -61 -66 -132 -147 -132zM211 20c82 0 146 99 146 234v11c0 135 -64 233 -146 233c-81 0 -137 -93 -137 -235v-8c0 -140 56 -235 137 -235z" />
    <glyph glyph-name="aring.alt2" horiz-adv-x="403" 
d="M173 -9c-78 0 -136 61 -136 159v4c0 101 59 166 159 166c45 0 85 -12 117 -25v68c0 82 -42 132 -121 132c-42 0 -81 -14 -111 -33l-13 26c25 15 56 27 87 33c-20 14 -32 37 -32 64c0 44 34 80 80 80s80 -36 80 -80c0 -29 -16 -55 -38 -68c23 -6 42 -18 57 -32
c26 -26 41 -66 41 -118v-367h-30v92c-22 -54 -67 -101 -140 -101zM177 19c78 0 136 76 136 155v91c-34 16 -73 27 -116 27c-84 0 -129 -54 -129 -137v-4c0 -79 42 -132 109 -132zM203 524c34 0 59 26 59 61c0 34 -25 60 -59 60c-35 0 -59 -26 -59 -60c0 -35 24 -61 59 -61z
" />
    <glyph glyph-name="Aringacute" unicode="&#x1fa;" horiz-adv-x="524" 
d="M34 0l202 671c-35 9 -58 38 -58 74c0 43 36 77 84 77c47 0 83 -34 83 -77c0 -35 -24 -64 -58 -74l203 -671h-33l-61 205h-269l-61 -205h-32zM136 234h251l-125 423zM261 688c36 0 61 25 61 57c0 31 -25 57 -61 57c-35 0 -60 -26 -60 -57c0 -32 25 -57 60 -57zM248 847
l70 85l33 -16l-79 -69h-24z" />
    <glyph glyph-name="aringacute" unicode="&#x1fb;" horiz-adv-x="403" 
d="M190 778l69 92l32 -16l-79 -76h-22zM173 -9c-78 0 -136 61 -136 159v4c0 101 59 166 159 166c45 0 85 -12 117 -25v68c0 82 -42 132 -121 132c-42 0 -81 -14 -111 -33l-13 26c36 21 80 36 125 36c48 0 84 -15 109 -39c26 -26 41 -66 41 -118v-367h-30v92
c-22 -54 -67 -101 -140 -101zM177 19c78 0 136 76 136 155v91c-34 16 -73 27 -116 27c-84 0 -129 -54 -129 -137v-4c0 -79 42 -132 109 -132zM203 586c-46 0 -80 35 -80 80c0 44 35 79 81 79c45 0 79 -35 79 -79c0 -45 -34 -80 -80 -80zM203 605c35 0 59 26 59 61
c0 34 -24 60 -59 60c-34 0 -59 -26 -59 -60c0 -35 25 -61 59 -61z" />
    <glyph glyph-name="aringacute.alt" horiz-adv-x="451" 
d="M217 778l69 92l32 -16l-80 -76h-21zM230 586c-46 0 -80 35 -80 80c0 44 35 79 81 79c45 0 79 -35 79 -79c0 -45 -34 -80 -80 -80zM230 605c35 0 59 26 59 61c0 34 -24 60 -59 60c-34 0 -59 -26 -59 -60c0 -35 25 -61 59 -61zM208 -8c-93 0 -165 101 -165 262v9
c0 161 72 263 165 263c82 0 128 -70 147 -131v123h30v-518h-30v124c-19 -61 -66 -132 -147 -132zM211 20c82 0 146 99 146 234v11c0 135 -64 233 -146 233c-81 0 -137 -93 -137 -235v-8c0 -140 56 -235 137 -235z" />
    <glyph glyph-name="aringacute.alt2" horiz-adv-x="403" 
d="M190 695l69 92l32 -17l-79 -75h-22zM173 -9c-78 0 -136 61 -136 159v4c0 101 59 166 159 166c45 0 85 -12 117 -25v68c0 82 -42 132 -121 132c-42 0 -81 -14 -111 -33l-13 26c25 15 56 27 87 33c-20 14 -32 37 -32 64c0 44 34 80 80 80s80 -36 80 -80
c0 -29 -16 -55 -38 -68c23 -6 42 -18 57 -32c26 -26 41 -66 41 -118v-367h-30v92c-22 -54 -67 -101 -140 -101zM177 19c78 0 136 76 136 155v91c-34 16 -73 27 -116 27c-84 0 -129 -54 -129 -137v-4c0 -79 42 -132 109 -132zM203 524c34 0 59 26 59 61c0 34 -25 60 -59 60
c-35 0 -59 -26 -59 -60c0 -35 24 -61 59 -61z" />
    <glyph glyph-name="Atilde" unicode="&#xc3;" horiz-adv-x="524" 
d="M34 0l212 705h32l212 -705h-33l-61 205h-269l-61 -205h-32zM136 234h251l-125 423zM314 759c-19 0 -35 10 -56 22c-19 11 -35 22 -46 22c-18 0 -29 -14 -39 -44l-23 5c13 43 33 67 61 67c19 0 37 -11 57 -24c20 -11 33 -19 44 -19c18 0 28 13 40 44l22 -6
c-13 -43 -33 -67 -60 -67z" />
    <glyph glyph-name="atilde" unicode="&#xe3;" horiz-adv-x="403" 
d="M173 -9c-78 0 -136 61 -136 159v4c0 101 59 166 159 166c45 0 85 -12 117 -25v68c0 82 -42 132 -121 132c-42 0 -81 -14 -111 -33l-13 26c36 21 80 36 125 36c48 0 84 -15 109 -39c26 -26 41 -66 41 -118v-367h-30v92c-22 -54 -67 -101 -140 -101zM177 19
c78 0 136 76 136 155v91c-34 16 -73 27 -116 27c-84 0 -129 -54 -129 -137v-4c0 -79 42 -132 109 -132zM251 589c-18 0 -33 11 -51 26c-20 16 -32 25 -44 25c-16 0 -27 -16 -38 -52l-22 6c12 47 31 74 60 74c19 0 34 -11 53 -28c20 -16 31 -23 41 -23c17 0 28 16 39 52
l21 -6c-12 -47 -30 -74 -59 -74z" />
    <glyph glyph-name="atilde.alt" horiz-adv-x="451" 
d="M208 -8c-93 0 -165 101 -165 262v9c0 161 72 263 165 263c82 0 128 -70 147 -131v123h30v-518h-30v124c-19 -61 -66 -132 -147 -132zM211 20c82 0 146 99 146 234v11c0 135 -64 233 -146 233c-81 0 -137 -93 -137 -235v-8c0 -140 56 -235 137 -235zM278 589
c-18 0 -33 11 -51 26c-20 16 -32 25 -44 25c-16 0 -27 -16 -38 -52l-22 6c12 47 31 74 60 74c19 0 34 -11 53 -28c20 -16 31 -23 41 -23c17 0 28 16 39 52l21 -6c-12 -47 -30 -74 -59 -74z" />
    <glyph glyph-name="Cacute" unicode="&#x106;" horiz-adv-x="459" 
d="M282 -6c-133 0 -231 124 -231 351v9c0 223 107 352 237 352c62 0 104 -25 136 -55l-19 -24c-30 28 -67 50 -118 50c-112 0 -204 -125 -204 -323v-8c0 -206 88 -323 200 -323c51 0 91 25 125 57l19 -23c-37 -35 -83 -63 -145 -63zM262 753l73 103l34 -16l-85 -87h-22z" />
    <glyph glyph-name="cacute" unicode="&#x107;" horiz-adv-x="358" 
d="M203 582l72 121l34 -17l-86 -104h-20zM219 -8c-101 0 -177 90 -177 262v8c0 168 84 264 180 264c48 0 82 -22 106 -46l-18 -24c-22 23 -50 41 -89 41c-78 0 -148 -88 -148 -236v-7c0 -154 69 -234 147 -233c38 0 66 19 91 43l18 -21c-25 -27 -60 -51 -110 -51z" />
    <glyph glyph-name="Ccaron" unicode="&#x10c;" horiz-adv-x="459" 
d="M282 -6c-133 0 -231 124 -231 351v9c0 223 107 352 237 352c62 0 104 -25 136 -55l-19 -24c-30 28 -67 50 -118 50c-112 0 -204 -125 -204 -323v-8c0 -206 88 -323 200 -323c51 0 91 25 125 57l19 -23c-37 -35 -83 -63 -145 -63zM370 855l-81 -99h-27l-82 99h29l66 -68
l67 68h28z" />
    <glyph glyph-name="ccaron" unicode="&#x10d;" horiz-adv-x="358" 
d="M306 706l-78 -120h-23l-77 120h25l64 -86l64 86h25zM219 -8c-101 0 -177 90 -177 262v8c0 168 84 264 180 264c48 0 82 -22 106 -46l-18 -24c-22 23 -50 41 -89 41c-78 0 -148 -88 -148 -236v-7c0 -154 69 -234 147 -233c38 0 66 19 91 43l18 -21
c-25 -27 -60 -51 -110 -51z" />
    <glyph glyph-name="Ccedilla" unicode="&#xc7;" horiz-adv-x="459" 
d="M232 -117l-33 14l59 99c-121 13 -207 136 -207 349v9c0 223 107 352 237 352c62 0 104 -25 136 -55l-19 -24c-30 28 -67 50 -118 50c-112 0 -204 -125 -204 -323v-8c0 -206 88 -323 200 -323c51 0 91 25 125 57l19 -23c-37 -35 -83 -63 -145 -63h-2z" />
    <glyph glyph-name="ccedilla" unicode="&#xe7;" horiz-adv-x="358" 
d="M171 -117l-33 14l58 97c-90 12 -154 101 -154 260v8c0 168 84 264 180 264c48 0 82 -22 106 -46l-18 -24c-22 23 -50 41 -89 41c-78 0 -148 -88 -148 -236v-7c0 -154 69 -234 147 -233c38 0 66 19 91 43l18 -21c-25 -27 -60 -51 -110 -51h-1z" />
    <glyph glyph-name="Cdotaccent" unicode="&#x10a;" horiz-adv-x="459" 
d="M254 764v51h42v-51h-42zM282 -6c-133 0 -231 124 -231 351v9c0 223 107 352 237 352c62 0 104 -25 136 -55l-19 -24c-30 28 -67 50 -118 50c-112 0 -204 -125 -204 -323v-8c0 -206 88 -323 200 -323c51 0 91 25 125 57l19 -23c-37 -35 -83 -63 -145 -63z" />
    <glyph glyph-name="cdotaccent" unicode="&#x10b;" horiz-adv-x="358" 
d="M219 -8c-101 0 -177 90 -177 262v8c0 168 84 264 180 264c48 0 82 -22 106 -46l-18 -24c-22 23 -50 41 -89 41c-78 0 -148 -88 -148 -236v-7c0 -154 69 -234 147 -233c38 0 66 19 91 43l18 -21c-25 -27 -60 -51 -110 -51zM197 592v53h40v-53h-40z" />
    <glyph glyph-name="Dcaron" unicode="&#x10e;" horiz-adv-x="521" 
d="M74 0v700h115c170 0 281 -129 281 -344v-12c0 -213 -110 -344 -283 -344h-113zM187 671h-81v-642h79c158 0 253 120 253 315v12c0 194 -97 315 -251 315zM338 850l-81 -99h-27l-82 99h29l66 -68l67 68h28z" />
    <glyph glyph-name="dcaron" unicode="&#x10f;" horiz-adv-x="451" 
d="M429 565l10 149h31v-3l-27 -146h-14zM208 -8c-93 0 -165 101 -165 262v9c0 161 72 263 165 263c82 0 128 -70 147 -131v318h30v-713h-30v124c-19 -61 -66 -132 -147 -132zM211 20c82 0 146 99 146 234v11c0 135 -64 233 -146 233c-81 0 -137 -93 -137 -235v-8
c0 -140 56 -235 137 -235z" />
    <glyph glyph-name="Dcroat" unicode="&#x110;" horiz-adv-x="530" 
d="M83 0v338h-61v28h61v334h125c157 0 271 -129 271 -344v-12c0 -213 -112 -344 -273 -344h-123zM261 338h-146v-309h91c145 0 241 120 241 315v12c0 194 -99 315 -241 315h-91v-305h146v-28z" />
    <glyph glyph-name="dcroat" unicode="&#x111;" horiz-adv-x="452" 
d="M223 609v26h132v78h31v-78h54v-26h-54v-609h-31v124c-20 -61 -66 -132 -143 -132c-94 0 -168 106 -168 262v9c0 157 74 263 168 263c77 0 124 -71 143 -131v214h-132zM214 20c79 0 143 98 143 233v11c0 136 -64 234 -143 234c-81 0 -139 -97 -139 -235v-8
c0 -137 58 -235 139 -235z" />
    <glyph glyph-name="Eacute" unicode="&#xc9;" horiz-adv-x="436" 
d="M221 748l73 103l34 -16l-85 -87h-22zM74 0v700h316v-29h-284v-303h258v-29h-258v-310h288v-29h-320z" />
    <glyph glyph-name="eacute" unicode="&#xe9;" horiz-adv-x="409" 
d="M227 -8c-101 0 -185 92 -185 262v5c0 171 78 267 168 267c96 0 160 -102 160 -258v-21h-297c2 -146 73 -227 157 -227c43 0 80 17 112 47l18 -23c-38 -33 -80 -52 -133 -52zM73 275h266c-1 124 -51 223 -130 223c-73 0 -132 -85 -136 -223zM198 582l72 121l34 -17
l-86 -104h-20z" />
    <glyph glyph-name="Ebreve" unicode="&#x114;" horiz-adv-x="436" 
d="M235 750c-56 0 -97 29 -105 82h27c8 -32 32 -54 78 -54s71 22 79 54h26c-7 -53 -48 -82 -105 -82zM74 0v700h316v-29h-284v-303h258v-29h-258v-310h288v-29h-320z" />
    <glyph glyph-name="ebreve" unicode="&#x115;" horiz-adv-x="409" 
d="M227 -8c-101 0 -185 92 -185 262v5c0 171 78 267 168 267c96 0 160 -102 160 -258v-21h-297c2 -146 73 -227 157 -227c43 0 80 17 112 47l18 -23c-38 -33 -80 -52 -133 -52zM73 275h266c-1 124 -51 223 -130 223c-73 0 -132 -85 -136 -223zM210 584c-58 0 -95 37 -102 97
h25c8 -38 30 -69 77 -69c48 0 70 31 78 69h25c-7 -60 -44 -97 -103 -97z" />
    <glyph glyph-name="Ecaron" unicode="&#x11a;" horiz-adv-x="436" 
d="M330 850l-81 -99h-27l-82 99h29l66 -68l67 68h28zM74 0v700h316v-29h-284v-303h258v-29h-258v-310h288v-29h-320z" />
    <glyph glyph-name="ecaron" unicode="&#x11b;" horiz-adv-x="409" 
d="M227 -8c-101 0 -185 92 -185 262v5c0 171 78 267 168 267c96 0 160 -102 160 -258v-21h-297c2 -146 73 -227 157 -227c43 0 80 17 112 47l18 -23c-38 -33 -80 -52 -133 -52zM73 275h266c-1 124 -51 223 -130 223c-73 0 -132 -85 -136 -223zM300 706l-78 -120h-23l-77 120
h25l64 -86l64 86h25z" />
    <glyph glyph-name="Ecircumflex" unicode="&#xca;" horiz-adv-x="436" 
d="M74 0v700h316v-29h-284v-303h258v-29h-258v-310h288v-29h-320zM140 751l82 99h27l81 -99h-29l-67 69l-66 -69h-28z" />
    <glyph glyph-name="ecircumflex" unicode="&#xea;" horiz-adv-x="409" 
d="M227 -8c-101 0 -185 92 -185 262v5c0 171 78 267 168 267c96 0 160 -102 160 -258v-21h-297c2 -146 73 -227 157 -227c43 0 80 17 112 47l18 -23c-38 -33 -80 -52 -133 -52zM73 275h266c-1 124 -51 223 -130 223c-73 0 -132 -85 -136 -223zM122 586l77 120h24l77 -120
h-25l-65 86l-63 -86h-25z" />
    <glyph glyph-name="Edieresis" unicode="&#xcb;" horiz-adv-x="436" 
d="M270 759v51h40v-51h-40zM160 759v51h41v-51h-41zM74 0v700h316v-29h-284v-303h258v-29h-258v-310h288v-29h-320z" />
    <glyph glyph-name="edieresis" unicode="&#xeb;" horiz-adv-x="409" 
d="M227 -8c-101 0 -185 92 -185 262v5c0 171 78 267 168 267c96 0 160 -102 160 -258v-21h-297c2 -146 73 -227 157 -227c43 0 80 17 112 47l18 -23c-38 -33 -80 -52 -133 -52zM73 275h266c-1 124 -51 223 -130 223c-73 0 -132 -85 -136 -223zM140 592v52h39v-52h-39z
M242 592v52h38v-52h-38z" />
    <glyph glyph-name="Edotaccent" unicode="&#x116;" horiz-adv-x="436" 
d="M214 759v51h42v-51h-42zM74 0v700h316v-29h-284v-303h258v-29h-258v-310h288v-29h-320z" />
    <glyph glyph-name="edotaccent" unicode="&#x117;" horiz-adv-x="409" 
d="M227 -8c-101 0 -185 92 -185 262v5c0 171 78 267 168 267c96 0 160 -102 160 -258v-21h-297c2 -146 73 -227 157 -227c43 0 80 17 112 47l18 -23c-38 -33 -80 -52 -133 -52zM73 275h266c-1 124 -51 223 -130 223c-73 0 -132 -85 -136 -223zM191 592v53h40v-53h-40z" />
    <glyph glyph-name="Egrave" unicode="&#xc8;" horiz-adv-x="436" 
d="M248 748h-22l-85 87l34 16zM74 0v700h316v-29h-284v-303h258v-29h-258v-310h288v-29h-320z" />
    <glyph glyph-name="egrave" unicode="&#xe8;" horiz-adv-x="409" 
d="M227 -8c-101 0 -185 92 -185 262v5c0 171 78 267 168 267c96 0 160 -102 160 -258v-21h-297c2 -146 73 -227 157 -227c43 0 80 17 112 47l18 -23c-38 -33 -80 -52 -133 -52zM73 275h266c-1 124 -51 223 -130 223c-73 0 -132 -85 -136 -223zM205 582l-87 104l34 17
l72 -121h-19z" />
    <glyph glyph-name="Emacron" unicode="&#x112;" horiz-adv-x="436" 
d="M130 765v28h210v-28h-210zM74 0v700h316v-29h-284v-303h258v-29h-258v-310h288v-29h-320z" />
    <glyph glyph-name="emacron" unicode="&#x113;" horiz-adv-x="409" 
d="M227 -8c-101 0 -185 92 -185 262v5c0 171 78 267 168 267c96 0 160 -102 160 -258v-21h-297c2 -146 73 -227 157 -227c43 0 80 17 112 47l18 -23c-38 -33 -80 -52 -133 -52zM73 275h266c-1 124 -51 223 -130 223c-73 0 -132 -85 -136 -223zM112 598v28h197v-28h-197z" />
    <glyph glyph-name="Eogonek" unicode="&#x118;" horiz-adv-x="436" 
d="M74 0v700h316v-29h-284v-303h258v-29h-258v-310h288v-29h-20c-28 -32 -37 -51 -37 -70c0 -21 14 -32 54 -33v-22c-6 -1 -10 -1 -12 -1c-48 0 -71 21 -71 51c0 23 15 47 43 75h-277z" />
    <glyph glyph-name="eogonek" unicode="&#x119;" horiz-adv-x="409" 
d="M73 275h266c-1 124 -51 223 -130 223c-73 0 -132 -85 -136 -223zM342 67l18 -23c-9 -8 -23 -21 -37 -37c-20 -23 -44 -53 -44 -77c0 -21 14 -32 55 -33v-22c-7 -1 -11 -1 -13 -1c-48 0 -71 21 -71 51c0 26 18 50 51 83c-22 -11 -47 -16 -74 -16c-101 0 -185 92 -185 262
v5c0 171 78 267 168 267c96 0 160 -102 160 -258v-21h-297c2 -146 73 -227 157 -227c43 0 80 17 112 47z" />
    <glyph glyph-name="Eth" unicode="&#xd0;" horiz-adv-x="530" 
d="M83 0v338h-61v28h61v334h125c157 0 271 -129 271 -344v-12c0 -213 -112 -344 -273 -344h-123zM261 338h-146v-309h91c145 0 241 120 241 315v12c0 194 -99 315 -241 315h-91v-305h146v-28z" />
    <glyph glyph-name="eth" unicode="&#xf0;" horiz-adv-x="432" 
d="M325 689l-74 -45c82 -103 139 -222 139 -363v-11c0 -173 -77 -279 -175 -279c-102 0 -174 120 -174 265v7c0 161 82 264 171 264c53 0 94 -34 120 -71c-20 52 -56 113 -104 173l-87 -53l-14 22l84 51c-18 22 -39 43 -60 64h40l44 -49l76 46zM216 19c77 0 143 97 143 239
v7c0 146 -66 234 -145 234c-75 0 -142 -90 -142 -236v-7c0 -127 60 -237 144 -237z" />
    <glyph glyph-name="Gbreve" unicode="&#x11e;" horiz-adv-x="515" 
d="M285 755c-56 0 -97 29 -105 82h27c8 -32 32 -54 78 -54s71 22 79 54h26c-7 -53 -48 -82 -105 -82zM304 -8c-143 0 -253 120 -253 353v9c0 221 112 354 250 354c61 0 102 -17 144 -50l-19 -27c-33 28 -72 48 -125 48c-117 0 -218 -124 -218 -325v-8
c0 -214 100 -325 223 -325c47 0 90 18 115 37v265h-155v30h186v-310c-39 -30 -90 -51 -148 -51z" />
    <glyph glyph-name="gbreve" unicode="&#x11f;" horiz-adv-x="448" 
d="M210 -140c-47 0 -98 12 -148 38l13 28c40 -24 92 -37 136 -37c89 0 141 46 141 145v116c-20 -52 -67 -121 -145 -121c-92 0 -164 99 -164 245v6c0 146 73 246 164 246c79 0 125 -69 145 -121v113h31v-483c0 -59 -16 -101 -45 -131c-29 -29 -73 -44 -128 -44zM210 57
c79 0 144 95 144 217v6c0 123 -65 218 -144 218s-136 -91 -136 -218v-5c0 -127 57 -218 136 -218zM230 584c-58 0 -95 37 -102 97h25c8 -38 30 -69 77 -69c48 0 70 31 78 69h25c-7 -60 -44 -97 -103 -97z" />
    <glyph glyph-name="Gcommaaccent" unicode="&#x122;" horiz-adv-x="515" 
d="M262 -186l-9 16c21 10 30 23 29 49h-17v55h40v-49c0 -41 -14 -59 -43 -71zM304 -8c-143 0 -253 120 -253 353v9c0 221 112 354 250 354c61 0 102 -17 144 -50l-19 -27c-33 28 -72 48 -125 48c-117 0 -218 -124 -218 -325v-8c0 -214 100 -325 223 -325c47 0 90 18 115 37
v265h-155v30h186v-310c-39 -30 -90 -51 -148 -51z" />
    <glyph glyph-name="gcommaaccent" unicode="&#x123;" horiz-adv-x="448" 
d="M247 716l9 -16c-21 -10 -30 -23 -29 -49h17v-55h-40v49c0 41 14 59 43 71zM210 -140c-47 0 -98 12 -148 38l13 28c40 -24 92 -37 136 -37c89 0 141 46 141 145v116c-20 -52 -67 -121 -145 -121c-92 0 -164 99 -164 245v6c0 146 73 246 164 246c79 0 125 -69 145 -121v113
h31v-483c0 -59 -16 -101 -45 -131c-29 -29 -73 -44 -128 -44zM210 57c79 0 144 95 144 217v6c0 123 -65 218 -144 218s-136 -91 -136 -218v-5c0 -127 57 -218 136 -218z" />
    <glyph glyph-name="Gdotaccent" unicode="&#x120;" horiz-adv-x="515" 
d="M265 764v51h42v-51h-42zM304 -8c-143 0 -253 120 -253 353v9c0 221 112 354 250 354c61 0 102 -17 144 -50l-19 -27c-33 28 -72 48 -125 48c-117 0 -218 -124 -218 -325v-8c0 -214 100 -325 223 -325c47 0 90 18 115 37v265h-155v30h186v-310c-39 -30 -90 -51 -148 -51z
" />
    <glyph glyph-name="gdotaccent" unicode="&#x121;" horiz-adv-x="448" 
d="M210 -140c-47 0 -98 12 -148 38l13 28c40 -24 92 -37 136 -37c89 0 141 46 141 145v116c-20 -52 -67 -121 -145 -121c-92 0 -164 99 -164 245v6c0 146 73 246 164 246c79 0 125 -69 145 -121v113h31v-483c0 -59 -16 -101 -45 -131c-29 -29 -73 -44 -128 -44zM210 57
c79 0 144 95 144 217v6c0 123 -65 218 -144 218s-136 -91 -136 -218v-5c0 -127 57 -218 136 -218zM211 592v53h40v-53h-40z" />
    <glyph glyph-name="Hbar" unicode="&#x126;" horiz-adv-x="542" 
d="M21 549v26h61v125h32v-125h315v125h32v-125h60v-26h-60v-549h-32v337h-315v-337h-32v549h-61zM114 367h315v182h-315v-182z" />
    <glyph glyph-name="hbar" unicode="&#x127;" horiz-adv-x="435" 
d="M229 609h-133v-186c18 51 63 103 136 103c87 0 143 -68 143 -182v-344h-31v342c0 98 -42 157 -117 157c-71 0 -131 -68 -131 -163v-336h-30v609h-54v26h54v78h30v-78h133v-26z" />
    <glyph glyph-name="Iacute" unicode="&#xcd;" horiz-adv-x="192" 
d="M81 0v700h32v-700h-32zM85 748l73 103l34 -16l-85 -87h-22z" />
    <glyph glyph-name="iacute" unicode="&#xed;" horiz-adv-x="173" 
d="M74 581l72 121l34 -17l-86 -104h-20zM72 0v518h30v-518h-30z" />
    <glyph glyph-name="Ibreve" unicode="&#x12c;" horiz-adv-x="192" 
d="M81 0v700h32v-700h-32zM97 750c-56 0 -97 29 -105 82h27c8 -32 32 -54 78 -54s71 22 79 54h26c-7 -53 -48 -82 -105 -82z" />
    <glyph glyph-name="ibreve" unicode="&#x12d;" horiz-adv-x="173" 
d="M72 0v518h30v-518h-30zM86 583c-58 0 -95 37 -102 97h25c8 -38 30 -69 77 -69c48 0 70 31 78 69h25c-7 -60 -44 -97 -103 -97z" />
    <glyph glyph-name="Icircumflex" unicode="&#xce;" horiz-adv-x="192" 
d="M81 0v700h32v-700h-32zM2 751l82 99h27l81 -99h-29l-67 69l-66 -69h-28z" />
    <glyph glyph-name="icircumflex" unicode="&#xee;" horiz-adv-x="173" 
d="M-2 585l77 120h24l77 -120h-25l-65 86l-63 -86h-25zM72 0v518h30v-518h-30z" />
    <glyph glyph-name="Idieresis" unicode="&#xcf;" horiz-adv-x="192" 
d="M81 0v700h32v-700h-32zM132 759v51h40v-51h-40zM22 759v51h41v-51h-41z" />
    <glyph glyph-name="idieresis" unicode="&#xef;" horiz-adv-x="173" 
d="M118 591v52h38v-52h-38zM16 591v52h39v-52h-39zM72 0v518h30v-518h-30z" />
    <glyph glyph-name="Idotaccent" unicode="&#x130;" horiz-adv-x="192" 
d="M81 0v700h32v-700h-32zM76 759v51h42v-51h-42z" />
    <glyph glyph-name="dotlessi" unicode="&#x131;" horiz-adv-x="173" 
d="M72 0v518h30v-518h-30z" />
    <glyph glyph-name="Igrave" unicode="&#xcc;" horiz-adv-x="192" 
d="M81 0v700h32v-700h-32zM110 748h-22l-85 87l34 16z" />
    <glyph glyph-name="igrave" unicode="&#xec;" horiz-adv-x="173" 
d="M72 0v518h30v-518h-30zM81 581l-87 104l34 17l72 -121h-19z" />
    <glyph glyph-name="Imacron" unicode="&#x12a;" horiz-adv-x="192" 
d="M81 0v700h32v-700h-32zM-8 765v28h210v-28h-210z" />
    <glyph glyph-name="imacron" unicode="&#x12b;" horiz-adv-x="173" 
d="M72 0v518h30v-518h-30zM-12 597v28h197v-28h-197z" />
    <glyph glyph-name="Iogonek" unicode="&#x12e;" horiz-adv-x="192" 
d="M81 0v700h32v-700h-5c-28 -32 -37 -51 -37 -70c0 -21 14 -32 54 -33v-22c-6 -1 -10 -1 -12 -1c-48 0 -71 21 -71 51c0 23 15 47 43 75h-4z" />
    <glyph glyph-name="iogonek" unicode="&#x12f;" horiz-adv-x="173" 
d="M72 0v518h30v-518h-4c-28 -32 -37 -51 -37 -70c0 -21 14 -32 54 -33v-22c-6 -1 -10 -1 -12 -1c-48 0 -71 21 -71 51c0 23 15 47 43 75h-3zM69 644v62h35v-62h-35z" />
    <glyph glyph-name="Kcommaaccent" unicode="&#x136;" horiz-adv-x="470" 
d="M216 -183l-9 16c21 10 30 23 29 49h-17v55h40v-49c0 -41 -14 -59 -43 -71zM74 0v700h32v-433l290 433h37l-210 -310l226 -390h-37l-209 360l-97 -142v-218h-32z" />
    <glyph glyph-name="kcommaaccent" unicode="&#x137;" horiz-adv-x="378" 
d="M173 -184l-9 16c21 10 30 23 29 49h-17v55h40v-49c0 -41 -14 -59 -43 -71zM66 0v713h30v-516l212 321h35l-147 -218l158 -300h-34l-143 272l-81 -120v-152h-30z" />
    <glyph glyph-name="Lacute" unicode="&#x139;" horiz-adv-x="387" 
d="M86 748l73 103l34 -16l-85 -87h-22zM74 0v700h32v-671h261v-29h-293z" />
    <glyph glyph-name="lacute" unicode="&#x13a;" horiz-adv-x="173" 
d="M76 752l73 103l34 -16l-85 -87h-22zM72 0v713h30v-713h-30z" />
    <glyph glyph-name="Lcaron" unicode="&#x13d;" horiz-adv-x="387" 
d="M175 552l10 149h31v-3l-27 -146h-14zM74 0v700h32v-671h261v-29h-293z" />
    <glyph glyph-name="lcaron" unicode="&#x13e;" horiz-adv-x="173" 
d="M147 565l10 149h31v-3l-27 -146h-14zM72 0v713h30v-713h-30z" />
    <glyph glyph-name="Lcommaaccent" unicode="&#x13b;" horiz-adv-x="387" 
d="M191 -185l-9 16c21 10 30 23 29 49h-17v55h40v-49c0 -41 -14 -59 -43 -71zM74 0v700h32v-671h261v-29h-293z" />
    <glyph glyph-name="lcommaaccent" unicode="&#x13c;" horiz-adv-x="173" 
d="M63 -185l-9 16c21 10 30 23 29 49h-17v55h40v-49c0 -41 -14 -59 -43 -71zM72 0v713h30v-713h-30z" />
    <glyph glyph-name="Ldot" unicode="&#x13f;" horiz-adv-x="387" 
d="M267 326v55h40v-55h-40zM74 0v700h32v-671h261v-29h-293z" />
    <glyph glyph-name="ldot" unicode="&#x140;" horiz-adv-x="203" 
d="M167 323v58h37v-58h-37zM72 0v713h30v-713h-30z" />
    <glyph glyph-name="Lslash" unicode="&#x141;" horiz-adv-x="400" 
d="M247 398l-127 -74v-295h259v-29h-291v305l-66 -40v35l66 39v361h32v-342l127 74v-34z" />
    <glyph glyph-name="lslash" unicode="&#x142;" horiz-adv-x="197" 
d="M179 398l-66 -42v-356h-30v337l-65 -42v34l65 41v343h30v-324l66 43v-34z" />
    <glyph glyph-name="Nacute" unicode="&#x143;" horiz-adv-x="539" 
d="M258 743l73 103l34 -16l-85 -87h-22zM74 0v700h31l329 -626v626h30v-700h-26l-333 637v-637h-31z" />
    <glyph glyph-name="nacute" unicode="&#x144;" horiz-adv-x="435" 
d="M206 582l72 121l34 -17l-86 -104h-20zM66 0v518h30v-95c18 51 63 103 137 103c86 0 142 -64 142 -180v-346h-31v339c0 103 -42 160 -117 160c-71 0 -131 -68 -131 -163v-336h-30z" />
    <glyph glyph-name="Ncaron" unicode="&#x147;" horiz-adv-x="539" 
d="M365 845l-81 -99h-27l-82 99h29l66 -68l67 68h28zM74 0v700h31l329 -626v626h30v-700h-26l-333 637v-637h-31z" />
    <glyph glyph-name="ncaron" unicode="&#x148;" horiz-adv-x="435" 
d="M309 706l-78 -120h-23l-77 120h25l64 -86l64 86h25zM66 0v518h30v-95c18 51 63 103 137 103c86 0 142 -64 142 -180v-346h-31v339c0 103 -42 160 -117 160c-71 0 -131 -68 -131 -163v-336h-30z" />
    <glyph glyph-name="Ncommaaccent" unicode="&#x145;" horiz-adv-x="539" 
d="M247 -183l-9 16c21 10 30 23 29 49h-17v55h40v-49c0 -41 -14 -59 -43 -71zM74 0v700h31l329 -626v626h30v-700h-26l-333 637v-637h-31z" />
    <glyph glyph-name="ncommaaccent" unicode="&#x146;" horiz-adv-x="435" 
d="M196 -184l-9 16c21 10 30 23 29 49h-17v55h40v-49c0 -41 -14 -59 -43 -71zM66 0v518h30v-95c18 51 63 103 137 103c86 0 142 -64 142 -180v-346h-31v339c0 103 -42 160 -117 160c-71 0 -131 -68 -131 -163v-336h-30z" />
    <glyph glyph-name="Ntilde" unicode="&#xd1;" horiz-adv-x="539" 
d="M323 749c-19 0 -35 10 -56 22c-19 11 -35 22 -46 22c-18 0 -29 -14 -39 -44l-23 5c13 43 33 67 61 67c19 0 37 -11 57 -24c20 -11 33 -19 44 -19c18 0 28 13 40 44l22 -6c-13 -43 -33 -67 -60 -67zM74 0v700h31l329 -626v626h30v-700h-26l-333 637v-637h-31z" />
    <glyph glyph-name="ntilde" unicode="&#xf1;" horiz-adv-x="435" 
d="M66 0v518h30v-95c18 51 63 103 137 103c86 0 142 -64 142 -180v-346h-31v339c0 103 -42 160 -117 160c-71 0 -131 -68 -131 -163v-336h-30zM267 589c-18 0 -33 11 -51 26c-20 16 -32 25 -44 25c-16 0 -27 -16 -38 -52l-22 6c12 47 31 74 60 74c19 0 34 -11 53 -28
c20 -16 31 -23 41 -23c17 0 28 16 39 52l21 -6c-12 -47 -30 -74 -59 -74z" />
    <glyph glyph-name="Oacute" unicode="&#xd3;" horiz-adv-x="550" 
d="M262 753l73 103l34 -16l-85 -87h-22zM275 -9c-131 0 -224 136 -224 354v10c0 218 93 354 224 354s224 -136 224 -354v-10c0 -218 -93 -354 -224 -354zM275 21c111 0 191 127 191 324v10c0 196 -81 324 -191 324s-191 -127 -191 -324v-10c0 -196 81 -324 191 -324z" />
    <glyph glyph-name="oacute" unicode="&#xf3;" horiz-adv-x="436" 
d="M205 582l72 121l34 -17l-86 -104h-20zM218 -8c-101 0 -177 107 -177 264v6c0 157 77 264 177 264c101 0 177 -107 177 -264v-6c0 -157 -76 -264 -177 -264zM218 20c83 0 146 99 146 236v6c0 137 -64 236 -146 236s-146 -99 -146 -236v-6c0 -137 65 -236 146 -236z" />
    <glyph glyph-name="Obreve" unicode="&#x14e;" horiz-adv-x="550" 
d="M274 755c-56 0 -97 29 -105 82h27c8 -32 32 -54 78 -54s71 22 79 54h26c-7 -53 -48 -82 -105 -82zM275 -9c-131 0 -224 136 -224 354v10c0 218 93 354 224 354s224 -136 224 -354v-10c0 -218 -93 -354 -224 -354zM275 21c111 0 191 127 191 324v10
c0 196 -81 324 -191 324s-191 -127 -191 -324v-10c0 -196 81 -324 191 -324z" />
    <glyph glyph-name="obreve" unicode="&#x14f;" horiz-adv-x="436" 
d="M218 -8c-101 0 -177 107 -177 264v6c0 157 77 264 177 264c101 0 177 -107 177 -264v-6c0 -157 -76 -264 -177 -264zM218 20c83 0 146 99 146 236v6c0 137 -64 236 -146 236s-146 -99 -146 -236v-6c0 -137 65 -236 146 -236zM218 584c-58 0 -95 37 -102 97h25
c8 -38 30 -69 77 -69c48 0 70 31 78 69h25c-7 -60 -44 -97 -103 -97z" />
    <glyph glyph-name="Ocircumflex" unicode="&#xd4;" horiz-adv-x="550" 
d="M275 -9c-131 0 -224 136 -224 354v10c0 218 93 354 224 354s224 -136 224 -354v-10c0 -218 -93 -354 -224 -354zM275 21c111 0 191 127 191 324v10c0 196 -81 324 -191 324s-191 -127 -191 -324v-10c0 -196 81 -324 191 -324zM179 756l82 99h27l81 -99h-29l-67 69
l-66 -69h-28z" />
    <glyph glyph-name="ocircumflex" unicode="&#xf4;" horiz-adv-x="436" 
d="M130 586l77 120h24l77 -120h-25l-65 86l-63 -86h-25zM218 -8c-101 0 -177 107 -177 264v6c0 157 77 264 177 264c101 0 177 -107 177 -264v-6c0 -157 -76 -264 -177 -264zM218 20c83 0 146 99 146 236v6c0 137 -64 236 -146 236s-146 -99 -146 -236v-6
c0 -137 65 -236 146 -236z" />
    <glyph glyph-name="Odieresis" unicode="&#xd6;" horiz-adv-x="550" 
d="M309 764v51h40v-51h-40zM199 764v51h41v-51h-41zM275 -9c-131 0 -224 136 -224 354v10c0 218 93 354 224 354s224 -136 224 -354v-10c0 -218 -93 -354 -224 -354zM275 21c111 0 191 127 191 324v10c0 196 -81 324 -191 324s-191 -127 -191 -324v-10
c0 -196 81 -324 191 -324z" />
    <glyph glyph-name="odieresis" unicode="&#xf6;" horiz-adv-x="436" 
d="M250 592v52h38v-52h-38zM148 592v52h39v-52h-39zM218 -8c-101 0 -177 107 -177 264v6c0 157 77 264 177 264c101 0 177 -107 177 -264v-6c0 -157 -76 -264 -177 -264zM218 20c83 0 146 99 146 236v6c0 137 -64 236 -146 236s-146 -99 -146 -236v-6
c0 -137 65 -236 146 -236z" />
    <glyph glyph-name="OE" unicode="&#x152;" horiz-adv-x="751" 
d="M318 0c-159 0 -267 143 -267 345v10c0 220 115 345 267 345h387v-29h-279v-304h253v-28h-253v-310h283v-29h-391zM319 29h75v642h-76c-134 0 -235 -113 -235 -315v-11c0 -191 100 -316 236 -316z" />
    <glyph glyph-name="oe" unicode="&#x153;" horiz-adv-x="731" 
d="M218 -8c-99 0 -177 106 -177 264v6c0 158 79 264 177 264c75 0 136 -59 160 -156c24 102 85 156 152 156c96 0 161 -102 161 -258v-21h-298c3 -148 75 -227 159 -227c43 0 80 17 111 46l17 -23c-39 -33 -78 -51 -130 -51c-78 0 -146 56 -172 158
c-24 -98 -85 -158 -160 -158zM218 20c83 0 146 99 146 236v6c0 137 -63 236 -146 236s-146 -99 -146 -236v-6c0 -137 64 -236 146 -236zM393 275h267c-2 123 -51 223 -130 223c-73 0 -132 -85 -137 -223z" />
    <glyph glyph-name="Ograve" unicode="&#xd2;" horiz-adv-x="550" 
d="M289 753h-22l-85 87l34 16zM275 -9c-131 0 -224 136 -224 354v10c0 218 93 354 224 354s224 -136 224 -354v-10c0 -218 -93 -354 -224 -354zM275 21c111 0 191 127 191 324v10c0 196 -81 324 -191 324s-191 -127 -191 -324v-10c0 -196 81 -324 191 -324z" />
    <glyph glyph-name="ograve" unicode="&#xf2;" horiz-adv-x="436" 
d="M218 -8c-101 0 -177 107 -177 264v6c0 157 77 264 177 264c101 0 177 -107 177 -264v-6c0 -157 -76 -264 -177 -264zM218 20c83 0 146 99 146 236v6c0 137 -64 236 -146 236s-146 -99 -146 -236v-6c0 -137 65 -236 146 -236zM212 582l-87 104l34 17l72 -121h-19z" />
    <glyph glyph-name="Ohungarumlaut" unicode="&#x150;" horiz-adv-x="550" 
d="M275 -9c-131 0 -224 136 -224 354v10c0 218 93 354 224 354s224 -136 224 -354v-10c0 -218 -93 -354 -224 -354zM275 21c111 0 191 127 191 324v10c0 196 -81 324 -191 324s-191 -127 -191 -324v-10c0 -196 81 -324 191 -324zM212 753l73 103l33 -16l-85 -87h-21z
M305 753l72 103l34 -16l-83 -87h-23z" />
    <glyph glyph-name="ohungarumlaut" unicode="&#x151;" horiz-adv-x="436" 
d="M249 582l71 121l33 -16l-84 -105h-20zM158 582l72 121l32 -16l-84 -105h-20zM218 -8c-101 0 -177 107 -177 264v6c0 157 77 264 177 264c101 0 177 -107 177 -264v-6c0 -157 -76 -264 -177 -264zM218 20c83 0 146 99 146 236v6c0 137 -64 236 -146 236
s-146 -99 -146 -236v-6c0 -137 65 -236 146 -236z" />
    <glyph glyph-name="Omacron" unicode="&#x14c;" horiz-adv-x="550" 
d="M169 770v28h210v-28h-210zM275 -9c-131 0 -224 136 -224 354v10c0 218 93 354 224 354s224 -136 224 -354v-10c0 -218 -93 -354 -224 -354zM275 21c111 0 191 127 191 324v10c0 196 -81 324 -191 324s-191 -127 -191 -324v-10c0 -196 81 -324 191 -324z" />
    <glyph glyph-name="omacron" unicode="&#x14d;" horiz-adv-x="436" 
d="M120 598v28h197v-28h-197zM218 -8c-101 0 -177 107 -177 264v6c0 157 77 264 177 264c101 0 177 -107 177 -264v-6c0 -157 -76 -264 -177 -264zM218 20c83 0 146 99 146 236v6c0 137 -64 236 -146 236s-146 -99 -146 -236v-6c0 -137 65 -236 146 -236z" />
    <glyph glyph-name="Oslash" unicode="&#xd8;" horiz-adv-x="550" 
d="M465 707h32l-58 -99c38 -61 60 -148 60 -253v-9c0 -218 -93 -355 -224 -355c-58 0 -108 26 -146 74l-44 -72h-32l56 99c-37 61 -58 148 -58 253v9c0 218 93 355 224 355c57 0 108 -27 146 -75zM83 346c0 -91 16 -167 45 -223l278 481c-34 49 -79 77 -131 77
c-111 0 -192 -128 -192 -326v-9zM275 19c112 0 192 128 192 326v9c0 91 -17 167 -45 223l-278 -482c34 -49 79 -76 131 -76z" />
    <glyph glyph-name="oslash" unicode="&#xf8;" horiz-adv-x="436" 
d="M361 524h30l-45 -74c30 -46 49 -111 49 -188v-6c0 -158 -78 -264 -177 -264c-42 0 -80 19 -110 53l-32 -51h-31l45 74c-31 46 -49 110 -49 188v6c0 158 79 264 177 264c42 0 80 -20 110 -54zM72 256c0 -65 13 -119 35 -160l207 348c-25 34 -59 54 -96 54
c-83 0 -146 -99 -146 -236v-6zM218 20c83 0 146 99 146 236v6c0 64 -13 119 -35 159l-207 -348c26 -34 59 -53 96 -53z" />
    <glyph glyph-name="Oslashacute" unicode="&#x1fe;" horiz-adv-x="550" 
d="M465 707h32l-58 -99c38 -61 60 -148 60 -253v-9c0 -218 -93 -355 -224 -355c-58 0 -108 26 -146 74l-44 -72h-32l56 99c-37 61 -58 148 -58 253v9c0 218 93 355 224 355c57 0 108 -27 146 -75zM83 346c0 -91 16 -167 45 -223l278 481c-34 49 -79 77 -131 77
c-111 0 -192 -128 -192 -326v-9zM275 19c112 0 192 128 192 326v9c0 91 -17 167 -45 223l-278 -482c34 -49 79 -76 131 -76zM262 753l73 103l34 -16l-85 -87h-22z" />
    <glyph glyph-name="oslashacute" unicode="&#x1ff;" horiz-adv-x="436" 
d="M361 524h30l-45 -74c30 -46 49 -111 49 -188v-6c0 -158 -78 -264 -177 -264c-42 0 -80 19 -110 53l-32 -51h-31l45 74c-31 46 -49 110 -49 188v6c0 158 79 264 177 264c42 0 80 -20 110 -54zM72 256c0 -65 13 -119 35 -160l207 348c-25 34 -59 54 -96 54
c-83 0 -146 -99 -146 -236v-6zM218 20c83 0 146 99 146 236v6c0 64 -13 119 -35 159l-207 -348c26 -34 59 -53 96 -53zM205 582l72 121l34 -17l-86 -104h-20z" />
    <glyph glyph-name="Otilde" unicode="&#xd5;" horiz-adv-x="550" 
d="M327 759c-19 0 -35 10 -56 22c-19 11 -35 22 -46 22c-18 0 -29 -14 -39 -44l-23 5c13 43 33 67 61 67c19 0 37 -11 57 -24c20 -11 33 -19 44 -19c18 0 28 13 40 44l22 -6c-13 -43 -33 -67 -60 -67zM275 -9c-131 0 -224 136 -224 354v10c0 218 93 354 224 354
s224 -136 224 -354v-10c0 -218 -93 -354 -224 -354zM275 21c111 0 191 127 191 324v10c0 196 -81 324 -191 324s-191 -127 -191 -324v-10c0 -196 81 -324 191 -324z" />
    <glyph glyph-name="otilde" unicode="&#xf5;" horiz-adv-x="436" 
d="M218 -8c-101 0 -177 107 -177 264v6c0 157 77 264 177 264c101 0 177 -107 177 -264v-6c0 -157 -76 -264 -177 -264zM218 20c83 0 146 99 146 236v6c0 137 -64 236 -146 236s-146 -99 -146 -236v-6c0 -137 65 -236 146 -236zM267 589c-18 0 -33 11 -51 26
c-20 16 -32 25 -44 25c-16 0 -27 -16 -38 -52l-22 6c12 47 31 74 60 74c19 0 34 -11 53 -28c20 -16 31 -23 41 -23c17 0 28 16 39 52l21 -6c-12 -47 -30 -74 -59 -74z" />
    <glyph glyph-name="Racute" unicode="&#x154;" horiz-adv-x="491" 
d="M74 0v700h142c72 0 131 -21 169 -59c34 -34 52 -83 52 -142v-1c0 -110 -60 -176 -158 -198l171 -300h-37l-167 294c-16 -2 -32 -2 -49 -2h-91v-292h-32zM106 321h91c147 0 209 69 209 177v1c0 111 -74 172 -192 172h-108v-350zM216 748l73 103l34 -16l-85 -87h-22z" />
    <glyph glyph-name="racute" unicode="&#x155;" horiz-adv-x="259" 
d="M66 0v518h30v-104c21 60 72 113 146 111v-32h-3c-79 0 -143 -69 -143 -172v-321h-30zM129 581l72 121l34 -17l-86 -104h-20z" />
    <glyph glyph-name="Rcaron" unicode="&#x158;" horiz-adv-x="491" 
d="M325 850l-81 -99h-27l-82 99h29l66 -68l67 68h28zM74 0v700h142c72 0 131 -21 169 -59c34 -34 52 -83 52 -142v-1c0 -110 -60 -176 -158 -198l171 -300h-37l-167 294c-16 -2 -32 -2 -49 -2h-91v-292h-32zM106 321h91c147 0 209 69 209 177v1c0 111 -74 172 -192 172h-108
v-350z" />
    <glyph glyph-name="rcaron" unicode="&#x159;" horiz-adv-x="259" 
d="M66 0v518h30v-104c21 60 72 113 146 111v-32h-3c-79 0 -143 -69 -143 -172v-321h-30zM233 705l-78 -120h-23l-77 120h25l64 -86l64 86h25z" />
    <glyph glyph-name="Rcommaaccent" unicode="&#x156;" horiz-adv-x="491" 
d="M209 -183l-9 16c21 10 30 23 29 49h-17v55h40v-49c0 -41 -14 -59 -43 -71zM74 0v700h142c72 0 131 -21 169 -59c34 -34 52 -83 52 -142v-1c0 -110 -60 -176 -158 -198l171 -300h-37l-167 294c-16 -2 -32 -2 -49 -2h-91v-292h-32zM106 321h91c147 0 209 69 209 177v1
c0 111 -74 172 -192 172h-108v-350z" />
    <glyph glyph-name="rcommaaccent" unicode="&#x157;" horiz-adv-x="259" 
d="M66 0v518h30v-104c21 60 72 113 146 111v-32h-3c-79 0 -143 -69 -143 -172v-321h-30zM61 -185l-9 16c21 10 30 23 29 49h-17v55h40v-49c0 -41 -14 -59 -43 -71z" />
    <glyph glyph-name="Sacute" unicode="&#x15a;" horiz-adv-x="433" 
d="M211 -9c-75 0 -135 33 -182 87l22 24c42 -49 95 -81 160 -81c85 0 145 61 145 141v2c0 65 -28 112 -145 181c-120 71 -156 120 -156 201v2c0 89 72 161 171 161c66 0 116 -29 156 -68l-20 -25c-37 37 -80 63 -137 63c-83 0 -138 -59 -138 -130v-2c0 -72 34 -111 143 -176
c130 -77 158 -131 158 -206v-2c0 -98 -74 -172 -177 -172zM212 753l73 103l34 -16l-85 -87h-22z" />
    <glyph glyph-name="sacute" unicode="&#x15b;" horiz-adv-x="345" 
d="M165 582l72 121l34 -17l-86 -104h-20zM166 -6c-58 0 -105 23 -147 64l20 23c40 -39 78 -59 129 -59c64 0 110 44 110 101v2c0 49 -22 81 -113 129c-95 51 -125 90 -125 148v1c0 70 55 122 136 122c54 0 96 -22 131 -54l-20 -23c-32 30 -67 49 -112 49
c-63 0 -104 -41 -104 -93v-1c0 -46 25 -76 110 -122c101 -55 128 -92 128 -156v-1c0 -74 -60 -130 -143 -130z" />
    <glyph glyph-name="Scaron" unicode="&#x160;" horiz-adv-x="433" 
d="M211 -9c-75 0 -135 33 -182 87l22 24c42 -49 95 -81 160 -81c85 0 145 61 145 141v2c0 65 -28 112 -145 181c-120 71 -156 120 -156 201v2c0 89 72 161 171 161c66 0 116 -29 156 -68l-20 -25c-37 37 -80 63 -137 63c-83 0 -138 -59 -138 -130v-2c0 -72 34 -111 143 -176
c130 -77 158 -131 158 -206v-2c0 -98 -74 -172 -177 -172zM321 855l-81 -99h-27l-82 99h29l66 -68l67 68h28z" />
    <glyph glyph-name="scaron" unicode="&#x161;" horiz-adv-x="345" 
d="M267 706l-78 -120h-23l-77 120h25l64 -86l64 86h25zM166 -6c-58 0 -105 23 -147 64l20 23c40 -39 78 -59 129 -59c64 0 110 44 110 101v2c0 49 -22 81 -113 129c-95 51 -125 90 -125 148v1c0 70 55 122 136 122c54 0 96 -22 131 -54l-20 -23c-32 30 -67 49 -112 49
c-63 0 -104 -41 -104 -93v-1c0 -46 25 -76 110 -122c101 -55 128 -92 128 -156v-1c0 -74 -60 -130 -143 -130z" />
    <glyph glyph-name="Scedilla" unicode="&#x15e;" horiz-adv-x="433" 
d="M187 -117l-33 14l56 94c-75 1 -134 33 -181 87l22 24c42 -49 95 -81 160 -81c85 0 145 61 145 141v2c0 65 -28 112 -145 181c-120 71 -156 120 -156 201v2c0 89 72 161 171 161c66 0 116 -29 156 -68l-20 -25c-37 37 -80 63 -137 63c-83 0 -138 -59 -138 -130v-2
c0 -72 34 -111 143 -176c130 -77 158 -131 158 -206v-2c0 -91 -63 -161 -154 -171z" />
    <glyph glyph-name="scedilla" unicode="&#x15f;" horiz-adv-x="345" 
d="M138 -117l-33 14l58 97c-57 1 -103 23 -144 64l20 23c40 -39 78 -59 129 -59c64 0 110 44 110 101v2c0 49 -22 81 -113 129c-95 51 -125 90 -125 148v1c0 70 55 122 136 122c54 0 96 -22 131 -54l-20 -23c-32 30 -67 49 -112 49c-63 0 -104 -41 -104 -93v-1
c0 -46 25 -76 110 -122c101 -55 128 -92 128 -156v-1c0 -68 -50 -121 -122 -129z" />
    <glyph glyph-name="Scommaaccent" unicode="&#x218;" horiz-adv-x="433" 
d="M192 -186l-9 16c21 10 30 23 29 49h-17v55h40v-49c0 -41 -14 -59 -43 -71zM211 -9c-75 0 -135 33 -182 87l22 24c42 -49 95 -81 160 -81c85 0 145 61 145 141v2c0 65 -28 112 -145 181c-120 71 -156 120 -156 201v2c0 89 72 161 171 161c66 0 116 -29 156 -68l-20 -25
c-37 37 -80 63 -137 63c-83 0 -138 -59 -138 -130v-2c0 -72 34 -111 143 -176c130 -77 158 -131 158 -206v-2c0 -98 -74 -172 -177 -172z" />
    <glyph glyph-name="scommaaccent" unicode="&#x219;" horiz-adv-x="345" 
d="M151 -185l-9 16c21 10 30 23 29 49h-17v55h40v-49c0 -41 -14 -59 -43 -71zM166 -6c-58 0 -105 23 -147 64l20 23c40 -39 78 -59 129 -59c64 0 110 44 110 101v2c0 49 -22 81 -113 129c-95 51 -125 90 -125 148v1c0 70 55 122 136 122c54 0 96 -22 131 -54l-20 -23
c-32 30 -67 49 -112 49c-63 0 -104 -41 -104 -93v-1c0 -46 25 -76 110 -122c101 -55 128 -92 128 -156v-1c0 -74 -60 -130 -143 -130z" />
    <glyph glyph-name="Tcaron" unicode="&#x164;" horiz-adv-x="394" 
d="M293 850l-81 -99h-27l-82 99h29l66 -68l67 68h28zM181 0v671h-160v29h352v-29h-160v-671h-32z" />
    <glyph glyph-name="tcaron" unicode="&#x165;" horiz-adv-x="262" 
d="M190 565l10 149h31v-3l-27 -146h-14zM184 -5c-61 0 -100 32 -100 104v391h-57v28h57v155h31v-155h112v-28h-112v-387c0 -59 27 -80 71 -80c13 0 28 3 42 8v-28c-14 -6 -30 -8 -44 -8z" />
    <glyph glyph-name="Tcommaaccent" unicode="&#x162;" horiz-adv-x="394" 
d="M174 -185l-9 16c21 10 30 23 29 49h-17v55h40v-49c0 -41 -14 -59 -43 -71zM181 0v671h-160v29h352v-29h-160v-671h-32z" />
    <glyph glyph-name="tcommaaccent" unicode="&#x163;" horiz-adv-x="262" 
d="M133 -185l-9 16c21 10 30 23 29 49h-17v55h40v-49c0 -41 -14 -59 -43 -71zM184 -5c-61 0 -100 32 -100 104v391h-57v28h57v155h31v-155h112v-28h-112v-387c0 -59 27 -80 71 -80c13 0 28 3 42 8v-28c-14 -6 -30 -8 -44 -8z" />
    <glyph glyph-name="Thorn" unicode="&#xde;" horiz-adv-x="459" 
d="M74 0v700h33v-125h98c137 0 222 -84 222 -214v-2c0 -133 -87 -219 -227 -219h-94v-140h-32zM106 169h96c118 0 193 72 193 189v2c0 117 -77 186 -192 186h-97v-377z" />
    <glyph glyph-name="thorn" unicode="&#xfe;" horiz-adv-x="460" 
d="M66 -138v851h30v-319c20 61 66 132 144 132c93 0 169 -106 169 -262v-9c0 -157 -76 -263 -169 -263c-78 0 -124 70 -144 131v-261h-30zM238 20c80 0 139 97 139 235v8c0 136 -59 235 -139 235s-143 -99 -143 -234v-11c0 -135 64 -233 143 -233z" />
    <glyph glyph-name="Uacute" unicode="&#xda;" horiz-adv-x="521" 
d="M247 743l73 103l34 -16l-85 -87h-22zM260 -9c-116 0 -191 84 -191 230v479h31v-479c0 -130 64 -201 161 -201s160 69 160 200v480h32v-478c0 -147 -75 -231 -193 -231z" />
    <glyph glyph-name="uacute" unicode="&#xfa;" horiz-adv-x="435" 
d="M202 577l72 121l34 -17l-86 -104h-20zM202 -8c-86 0 -141 64 -141 180v346h30v-339c0 -103 42 -160 116 -160c72 0 131 68 131 163v336h31v-518h-31v95c-17 -51 -62 -103 -136 -103z" />
    <glyph glyph-name="Ubreve" unicode="&#x16c;" horiz-adv-x="521" 
d="M259 744c-56 0 -97 29 -105 82h27c8 -32 32 -54 78 -54s71 22 79 54h26c-7 -53 -48 -82 -105 -82zM260 -9c-116 0 -191 84 -191 230v479h31v-479c0 -130 64 -201 161 -201s160 69 160 200v480h32v-478c0 -147 -75 -231 -193 -231z" />
    <glyph glyph-name="ubreve" unicode="&#x16d;" horiz-adv-x="435" 
d="M202 -8c-86 0 -141 64 -141 180v346h30v-339c0 -103 42 -160 116 -160c72 0 131 68 131 163v336h31v-518h-31v95c-17 -51 -62 -103 -136 -103zM215 577c-58 0 -95 37 -102 97h25c8 -38 30 -69 77 -69c48 0 70 31 78 69h25c-7 -60 -44 -97 -103 -97z" />
    <glyph glyph-name="Ucircumflex" unicode="&#xdb;" horiz-adv-x="521" 
d="M260 -9c-116 0 -191 84 -191 230v479h31v-479c0 -130 64 -201 161 -201s160 69 160 200v480h32v-478c0 -147 -75 -231 -193 -231zM165 746l82 99h27l81 -99h-29l-67 69l-66 -69h-28z" />
    <glyph glyph-name="ucircumflex" unicode="&#xfb;" horiz-adv-x="435" 
d="M126 581l77 120h24l77 -120h-25l-65 86l-63 -86h-25zM202 -8c-86 0 -141 64 -141 180v346h30v-339c0 -103 42 -160 116 -160c72 0 131 68 131 163v336h31v-518h-31v95c-17 -51 -62 -103 -136 -103z" />
    <glyph glyph-name="Udieresis" unicode="&#xdc;" horiz-adv-x="521" 
d="M294 754v51h40v-51h-40zM184 754v51h41v-51h-41zM260 -9c-116 0 -191 84 -191 230v479h31v-479c0 -130 64 -201 161 -201s160 69 160 200v480h32v-478c0 -147 -75 -231 -193 -231z" />
    <glyph glyph-name="udieresis" unicode="&#xfc;" horiz-adv-x="435" 
d="M247 587v52h38v-52h-38zM145 587v52h39v-52h-39zM202 -8c-86 0 -141 64 -141 180v346h30v-339c0 -103 42 -160 116 -160c72 0 131 68 131 163v336h31v-518h-31v95c-17 -51 -62 -103 -136 -103z" />
    <glyph glyph-name="Ugrave" unicode="&#xd9;" horiz-adv-x="521" 
d="M274 743h-22l-85 87l34 16zM260 -9c-116 0 -191 84 -191 230v479h31v-479c0 -130 64 -201 161 -201s160 69 160 200v480h32v-478c0 -147 -75 -231 -193 -231z" />
    <glyph glyph-name="ugrave" unicode="&#xf9;" horiz-adv-x="435" 
d="M202 -8c-86 0 -141 64 -141 180v346h30v-339c0 -103 42 -160 116 -160c72 0 131 68 131 163v336h31v-518h-31v95c-17 -51 -62 -103 -136 -103zM209 577l-87 104l34 17l72 -121h-19z" />
    <glyph glyph-name="Uhungarumlaut" unicode="&#x170;" horiz-adv-x="521" 
d="M260 -9c-116 0 -191 84 -191 230v479h31v-479c0 -130 64 -201 161 -201s160 69 160 200v480h32v-478c0 -147 -75 -231 -193 -231zM197 743l73 103l33 -16l-85 -87h-21zM290 743l72 103l34 -16l-83 -87h-23z" />
    <glyph glyph-name="uhungarumlaut" unicode="&#x171;" horiz-adv-x="435" 
d="M202 -8c-86 0 -141 64 -141 180v346h30v-339c0 -103 42 -160 116 -160c72 0 131 68 131 163v336h31v-518h-31v95c-17 -51 -62 -103 -136 -103zM245 577l71 121l33 -16l-84 -105h-20zM154 577l72 121l32 -16l-84 -105h-20z" />
    <glyph glyph-name="Umacron" unicode="&#x16a;" horiz-adv-x="521" 
d="M154 760v28h210v-28h-210zM260 -9c-116 0 -191 84 -191 230v479h31v-479c0 -130 64 -201 161 -201s160 69 160 200v480h32v-478c0 -147 -75 -231 -193 -231z" />
    <glyph glyph-name="umacron" unicode="&#x16b;" horiz-adv-x="435" 
d="M202 -8c-86 0 -141 64 -141 180v346h30v-339c0 -103 42 -160 116 -160c72 0 131 68 131 163v336h31v-518h-31v95c-17 -51 -62 -103 -136 -103zM117 593v28h197v-28h-197z" />
    <glyph glyph-name="Uogonek" unicode="&#x172;" horiz-adv-x="521" 
d="M297 -103v-22c-6 -1 -10 -1 -12 -1c-48 0 -71 21 -71 51c0 21 12 42 34 66c-109 6 -179 89 -179 230v479h31v-479c0 -130 64 -201 161 -201s160 69 160 200v480h32v-478c0 -142 -70 -225 -181 -231c-22 -27 -29 -44 -29 -61c0 -21 14 -32 54 -33z" />
    <glyph glyph-name="uogonek" unicode="&#x173;" horiz-adv-x="435" 
d="M202 -8c-86 0 -141 64 -141 180v346h30v-339c0 -103 42 -160 116 -160c72 0 131 68 131 163v336h31v-518h-5c-28 -32 -37 -51 -37 -70c0 -21 14 -32 54 -33v-22c-6 -1 -10 -1 -12 -1c-48 0 -71 21 -71 51c0 23 15 47 43 75h-3v95c-17 -51 -62 -103 -136 -103z" />
    <glyph glyph-name="Uring" unicode="&#x16e;" horiz-adv-x="521" 
d="M260 -9c-116 0 -191 84 -191 230v479h31v-479c0 -130 64 -201 161 -201s160 69 160 200v480h32v-478c0 -147 -75 -231 -193 -231zM259 736c-48 0 -83 34 -83 77s36 77 84 77s83 -34 83 -77s-36 -77 -84 -77zM259 756c35 0 61 25 61 57s-26 57 -61 57s-60 -25 -60 -57
s25 -57 60 -57z" />
    <glyph glyph-name="uring" unicode="&#x16f;" horiz-adv-x="435" 
d="M215 572c-46 0 -80 35 -80 80c0 44 35 79 81 79c45 0 79 -35 79 -79c0 -45 -34 -80 -80 -80zM215 591c35 0 59 26 59 61c0 34 -24 60 -59 60c-34 0 -59 -26 -59 -60c0 -35 25 -61 59 -61zM202 -8c-86 0 -141 64 -141 180v346h30v-339c0 -103 42 -160 116 -160
c72 0 131 68 131 163v336h31v-518h-31v95c-17 -51 -62 -103 -136 -103z" />
    <glyph glyph-name="Wacute" unicode="&#x1e82;" horiz-adv-x="754" 
d="M364 748l73 103l34 -16l-85 -87h-22zM198 -5l-159 705h33l141 -643l151 644h27l150 -644l141 643h33l-160 -705h-28l-150 641l-150 -641h-29z" />
    <glyph glyph-name="wacute" unicode="&#x1e83;" horiz-adv-x="598" 
d="M286 581l72 121l34 -17l-86 -104h-20zM162 -3l-128 521h32l108 -466l113 467h25l112 -467l109 466h31l-127 -521h-27l-111 458l-111 -458h-26z" />
    <glyph glyph-name="Wcircumflex" unicode="&#x174;" horiz-adv-x="754" 
d="M198 -5l-159 705h33l141 -643l151 644h27l150 -644l141 643h33l-160 -705h-28l-150 641l-150 -641h-29zM281 751l82 99h27l81 -99h-29l-67 69l-66 -69h-28z" />
    <glyph glyph-name="wcircumflex" unicode="&#x175;" horiz-adv-x="598" 
d="M209 582l77 120h24l77 -120h-25l-65 86l-63 -86h-25zM162 -3l-128 521h32l108 -466l113 467h25l112 -467l109 466h31l-127 -521h-27l-111 458l-111 -458h-26z" />
    <glyph glyph-name="Wdieresis" unicode="&#x1e84;" horiz-adv-x="754" 
d="M411 759v51h40v-51h-40zM301 759v51h41v-51h-41zM198 -5l-159 705h33l141 -643l151 644h27l150 -644l141 643h33l-160 -705h-28l-150 641l-150 -641h-29z" />
    <glyph glyph-name="wdieresis" unicode="&#x1e85;" horiz-adv-x="598" 
d="M330 591v52h38v-52h-38zM228 591v52h39v-52h-39zM162 -3l-128 521h32l108 -466l113 467h25l112 -467l109 466h31l-127 -521h-27l-111 458l-111 -458h-26z" />
    <glyph glyph-name="Wgrave" unicode="&#x1e80;" horiz-adv-x="754" 
d="M389 748h-22l-85 87l34 16zM198 -5l-159 705h33l141 -643l151 644h27l150 -644l141 643h33l-160 -705h-28l-150 641l-150 -641h-29z" />
    <glyph glyph-name="wgrave" unicode="&#x1e81;" horiz-adv-x="598" 
d="M162 -3l-128 521h32l108 -466l113 467h25l112 -467l109 466h31l-127 -521h-27l-111 458l-111 -458h-26zM292 581l-87 104l34 17l72 -121h-19z" />
    <glyph glyph-name="Yacute" unicode="&#xdd;" horiz-adv-x="455" 
d="M212 0v297l-195 403h34l177 -370l177 370h34l-195 -403v-297h-32zM214 743l73 103l34 -16l-85 -87h-22z" />
    <glyph glyph-name="yacute" unicode="&#xfd;" horiz-adv-x="402" 
d="M204 51l137 467h32l-153 -512c-35 -120 -72 -148 -122 -148c-20 0 -44 7 -63 19l12 28c14 -10 32 -18 51 -18c37 0 62 22 92 117l-160 514h32zM190 577l72 121l34 -17l-86 -104h-20z" />
    <glyph glyph-name="Ycircumflex" unicode="&#x176;" horiz-adv-x="455" 
d="M212 0v297l-195 403h34l177 -370l177 370h34l-195 -403v-297h-32zM134 746l82 99h27l81 -99h-29l-67 69l-66 -69h-28z" />
    <glyph glyph-name="ycircumflex" unicode="&#x177;" horiz-adv-x="402" 
d="M204 51l137 467h32l-153 -512c-35 -120 -72 -148 -122 -148c-20 0 -44 7 -63 19l12 28c14 -10 32 -18 51 -18c37 0 62 22 92 117l-160 514h32zM113 581l77 120h24l77 -120h-25l-65 86l-63 -86h-25z" />
    <glyph glyph-name="Ydieresis" unicode="&#x178;" horiz-adv-x="455" 
d="M212 0v297l-195 403h34l177 -370l177 370h34l-195 -403v-297h-32zM263 754v51h40v-51h-40zM153 754v51h41v-51h-41z" />
    <glyph glyph-name="ydieresis" unicode="&#xff;" horiz-adv-x="402" 
d="M204 51l137 467h32l-153 -512c-35 -120 -72 -148 -122 -148c-20 0 -44 7 -63 19l12 28c14 -10 32 -18 51 -18c37 0 62 22 92 117l-160 514h32zM234 587v52h38v-52h-38zM132 587v52h39v-52h-39z" />
    <glyph glyph-name="Ygrave" unicode="&#x1ef2;" horiz-adv-x="455" 
d="M212 0v297l-195 403h34l177 -370l177 370h34l-195 -403v-297h-32zM241 743h-22l-85 87l34 16z" />
    <glyph glyph-name="ygrave" unicode="&#x1ef3;" horiz-adv-x="402" 
d="M204 51l137 467h32l-153 -512c-35 -120 -72 -148 -122 -148c-20 0 -44 7 -63 19l12 28c14 -10 32 -18 51 -18c37 0 62 22 92 117l-160 514h32zM196 577l-87 104l34 17l72 -121h-19z" />
    <glyph glyph-name="Zacute" unicode="&#x179;" horiz-adv-x="445" 
d="M44 0v21l318 650h-305v29h344v-20l-319 -651h318v-29h-356zM212 748l73 103l34 -16l-85 -87h-22z" />
    <glyph glyph-name="zacute" unicode="&#x17a;" horiz-adv-x="350" 
d="M166 581l72 121l34 -17l-86 -104h-20zM34 0v17l245 474h-234v27h270v-17l-245 -474h244v-27h-280z" />
    <glyph glyph-name="Zcaron" unicode="&#x17d;" horiz-adv-x="445" 
d="M321 850l-81 -99h-27l-82 99h29l66 -68l67 68h28zM44 0v21l318 650h-305v29h344v-20l-319 -651h318v-29h-356z" />
    <glyph glyph-name="zcaron" unicode="&#x17e;" horiz-adv-x="350" 
d="M268 705l-78 -120h-23l-77 120h25l64 -86l64 86h25zM34 0v17l245 474h-234v27h270v-17l-245 -474h244v-27h-280z" />
    <glyph glyph-name="Zdotaccent" unicode="&#x17b;" horiz-adv-x="445" 
d="M205 759v51h42v-51h-42zM44 0v21l318 650h-305v29h344v-20l-319 -651h318v-29h-356z" />
    <glyph glyph-name="zdotaccent" unicode="&#x17c;" horiz-adv-x="350" 
d="M34 0v17l245 474h-234v27h270v-17l-245 -474h244v-27h-280zM159 591v53h40v-53h-40z" />
    <glyph glyph-name="schwa" unicode="&#x259;" horiz-adv-x="409" 
d="M177 525c101 0 185 -92 185 -262v-5c0 -171 -78 -267 -168 -267c-96 0 -160 102 -160 258v21h297c-2 146 -73 227 -157 227c-43 0 -80 -17 -112 -47l-18 23c38 33 80 52 133 52zM331 242h-266c1 -124 51 -223 130 -223c73 0 132 85 136 223z" />
    <glyph glyph-name="germandbls" unicode="&#xdf;" horiz-adv-x="420" 
d="M183 -2v26c103 5 167 69 167 161v3c0 95 -65 148 -167 163v24c82 26 139 90 139 178v3c0 78 -42 131 -108 131c-74 0 -118 -61 -118 -165v-522h-30v520c0 123 57 196 148 196c84 0 139 -67 139 -158v-4c0 -98 -63 -162 -127 -187c77 -17 154 -69 154 -176v-5
c0 -112 -79 -185 -197 -188z" />
    <glyph glyph-name="zero" unicode="0" horiz-adv-x="482" 
d="M241 -9c-117 0 -191 128 -191 352v12c0 226 74 354 191 354c118 0 190 -128 190 -353v-12c0 -225 -72 -353 -190 -353zM242 20c95 0 157 123 157 323v12c0 201 -63 325 -158 325s-158 -123 -158 -324v-12c0 -200 63 -324 159 -324z" />
    <glyph glyph-name="one" unicode="1" horiz-adv-x="237" 
d="M122 0v664l-93 -46l-4 32l102 52h26v-702h-31z" />
    <glyph glyph-name="two" unicode="2" horiz-adv-x="408" 
d="M32 0v21l210 321c57 88 81 139 81 200c0 84 -52 137 -127 137c-55 0 -98 -30 -132 -84l-23 17c33 56 86 97 157 97c95 0 158 -68 158 -163v-3c0 -70 -26 -122 -90 -221l-191 -292h287v-30h-330z" />
    <glyph glyph-name="three" unicode="3" horiz-adv-x="389" 
d="M166 -7c-63 0 -109 26 -145 60l21 24c29 -30 68 -55 125 -55c83 0 149 68 149 171v2c0 107 -77 159 -182 164h-6l-3 21l180 290h-267v30h305v-23l-180 -291c99 -12 185 -69 185 -189v-3c0 -121 -80 -201 -182 -201z" />
    <glyph glyph-name="three.alt" horiz-adv-x="389" 
d="M165 -9c-65 0 -116 32 -146 65l20 23c28 -31 72 -59 126 -59c86 0 151 66 151 163v1c0 98 -67 163 -181 163h-19v28h19c106 0 174 76 174 164v2c0 84 -53 139 -132 139c-53 0 -96 -28 -126 -61l-19 21c34 38 86 69 146 69c101 0 163 -72 163 -166v-2
c0 -93 -60 -155 -133 -178c80 -20 141 -81 141 -179v-1c0 -112 -78 -192 -184 -192z" />
    <glyph glyph-name="four" unicode="4" horiz-adv-x="436" 
d="M304 0v170h-272l-4 23l278 512h27v-507h74v-28h-74v-170h-29zM63 198h241v443z" />
    <glyph glyph-name="five" unicode="5" horiz-adv-x="411" 
d="M180 -8c-58 0 -103 25 -137 56l20 24c29 -27 66 -51 119 -51c86 0 153 77 153 192v2c0 118 -68 171 -145 171c-43 0 -75 -11 -105 -26l-22 14l16 326h258v-30h-230l-14 -276c29 12 60 22 99 22c94 0 175 -67 175 -199v-2c0 -133 -79 -223 -187 -223z" />
    <glyph glyph-name="six" unicode="6" horiz-adv-x="443" 
d="M230 -10c-42 0 -78 15 -106 43c-45 45 -73 122 -73 272v20c0 248 78 383 208 383c45 0 79 -15 111 -41l-17 -25c-26 21 -55 36 -95 36c-112 0 -176 -133 -176 -358v-8c26 81 92 116 151 116c91 0 167 -71 167 -207v-3c0 -132 -71 -228 -170 -228zM230 19
c86 0 138 92 138 198v3c0 121 -62 179 -137 179c-72 0 -140 -59 -140 -178v-3c0 -107 50 -199 139 -199z" />
    <glyph glyph-name="seven" unicode="7" horiz-adv-x="384" 
d="M97 0l217 670h-273v30h306v-25l-217 -675h-33z" />
    <glyph glyph-name="eight" unicode="8" horiz-adv-x="426" 
d="M213 -9c-100 0 -175 74 -175 188v5c0 91 52 154 120 177c-57 23 -103 83 -103 166v5c0 111 73 177 158 177c86 0 158 -66 158 -177v-5c0 -83 -45 -143 -103 -166c69 -23 120 -86 120 -177v-5c0 -114 -74 -188 -175 -188zM213 375c75 0 127 74 127 153v3
c0 91 -54 149 -127 149c-72 0 -127 -58 -127 -149v-3c0 -79 53 -153 127 -153zM213 20c86 0 144 67 144 160v3c0 93 -62 164 -144 164c-81 0 -143 -71 -143 -164v-3c0 -93 57 -160 143 -160z" />
    <glyph glyph-name="nine" unicode="9" horiz-adv-x="439" 
d="M181 22c114 0 179 135 179 355v7c-26 -83 -92 -118 -152 -118c-91 0 -167 72 -167 211v3c0 134 71 230 170 230c42 0 78 -14 107 -43c44 -44 72 -122 72 -271v-20c0 -248 -78 -383 -210 -383c-45 0 -83 18 -117 45l17 25c29 -23 61 -41 101 -41zM210 295
c72 0 140 60 140 181v3c0 111 -50 202 -139 202c-86 0 -138 -92 -138 -200v-3c0 -124 62 -183 137 -183z" />
    <glyph glyph-name="period" unicode="." horiz-adv-x="143" 
d="M50 0v64h43v-64h-43z" />
    <glyph glyph-name="comma" unicode="," horiz-adv-x="141" 
d="M41 -82l-9 18c27 13 37 31 35 64h-19v64h44v-60c0 -49 -16 -69 -51 -86z" />
    <glyph glyph-name="colon" unicode=":" horiz-adv-x="151" 
d="M54 442v63h43v-63h-43zM54 0v64h43v-64h-43z" />
    <glyph glyph-name="semicolon" unicode=";" horiz-adv-x="148" 
d="M51 442v63h44v-63h-44zM43 -82l-9 18c27 13 37 31 35 64h-18v64h44v-60c0 -49 -16 -69 -52 -86z" />
    <glyph glyph-name="ellipsis" unicode="&#x2026;" horiz-adv-x="444" 
d="M350 0v64h45v-64h-45zM200 0v64h44v-64h-44zM50 0v64h43v-64h-43z" />
    <glyph glyph-name="periodcentered" unicode="&#xb7;" horiz-adv-x="145" 
d="M50 257v64h44v-64h-44z" />
    <glyph glyph-name="bullet" unicode="&#x2022;" horiz-adv-x="354" 
d="M174 250c-48 0 -85 37 -85 99v10c0 62 37 98 85 98c50 0 86 -36 86 -98v-10c0 -62 -36 -99 -86 -99z" />
    <glyph glyph-name="ampersand" unicode="&#x26;" horiz-adv-x="495" 
d="M448 -8l-80 115c-44 -71 -100 -115 -172 -115c-96 0 -159 79 -159 176v4c0 88 52 158 138 219c-53 77 -76 127 -76 179v3c0 72 53 136 130 136c76 0 123 -64 123 -131v-3c0 -75 -48 -131 -136 -191l150 -221c23 51 40 108 55 178l28 -8c-16 -77 -36 -142 -64 -197
l88 -127zM200 407c80 51 120 103 120 167v2c0 56 -36 105 -91 105c-59 0 -99 -49 -99 -107v-2c0 -46 18 -89 70 -165zM196 21c64 0 114 43 154 111l-161 237c-73 -51 -120 -118 -120 -195v-3c0 -84 51 -150 127 -150z" />
    <glyph glyph-name="exclam" unicode="!" horiz-adv-x="181" 
d="M83 183l-10 440v77h35v-77l-9 -440h-16zM68 0v64h44v-64h-44z" />
    <glyph glyph-name="exclamdown" unicode="&#xa1;" horiz-adv-x="181" 
d="M68 636v64h44v-64h-44zM73 0v77l10 440h16l9 -440v-77h-35z" />
    <glyph glyph-name="question" unicode="?" horiz-adv-x="370" 
d="M148 183l-8 168l4 6c96 24 156 85 156 174v4c0 87 -60 141 -134 141c-53 0 -95 -26 -127 -60l-18 23c35 38 84 67 146 67c94 0 165 -70 165 -169v-4c0 -101 -66 -166 -158 -197l-9 -153h-17zM137 0v64h43v-64h-43z" />
    <glyph glyph-name="questiondown" unicode="&#xbf;" horiz-adv-x="370" 
d="M190 636v64h42v-64h-42zM202 -6c-94 0 -164 70 -164 169v4c0 101 66 166 158 197l8 153h18l7 -168l-4 -6c-96 -24 -155 -85 -155 -174v-4c0 -87 60 -141 134 -141c53 0 95 26 126 60l19 -23c-36 -38 -84 -67 -147 -67z" />
    <glyph glyph-name="quotedblleft" unicode="&#x201c;" horiz-adv-x="252" 
d="M158 556v60c0 49 16 69 51 86l9 -18c-26 -13 -37 -31 -35 -64h19v-64h-44zM49 556v60c0 49 16 69 51 86l9 -18c-27 -13 -37 -31 -35 -64h18v-64h-43z" />
    <glyph glyph-name="quotedblright" unicode="&#x201d;" horiz-adv-x="252" 
d="M151 555l-9 18c28 12 38 31 36 63h-19v64h44v-59c0 -49 -16 -70 -52 -86zM42 555l-9 18c27 12 37 31 35 63h-19v64h44v-59c0 -49 -16 -70 -51 -86z" />
    <glyph glyph-name="quoteleft" unicode="&#x2018;" horiz-adv-x="141" 
d="M49 556v60c0 49 16 69 51 86l9 -18c-27 -13 -37 -31 -35 -64h18v-64h-43z" />
    <glyph glyph-name="quoteright" unicode="&#x2019;" horiz-adv-x="141" 
d="M42 555l-9 18c27 12 37 31 35 63h-19v64h44v-59c0 -49 -16 -70 -51 -86z" />
    <glyph glyph-name="quotedblbase" unicode="&#x201e;" horiz-adv-x="252" 
d="M150 -82l-9 18c27 13 38 31 36 64h-19v64h43v-60c0 -49 -15 -69 -51 -86zM41 -82l-9 18c27 13 37 31 35 64h-19v64h44v-60c0 -49 -16 -69 -51 -86z" />
    <glyph glyph-name="quotesinglbase" unicode="&#x201a;" horiz-adv-x="141" 
d="M41 -82l-9 18c27 13 37 31 35 64h-19v64h44v-60c0 -49 -16 -69 -51 -86z" />
    <glyph glyph-name="guillemotleft" unicode="&#xab;" horiz-adv-x="376" 
d="M308 45l-133 207v6l133 207l23 -12l-122 -197l122 -198zM167 45l-133 207v6l133 207l23 -12l-123 -197l123 -198z" />
    <glyph glyph-name="guillemotright" unicode="&#xbb;" horiz-adv-x="376" 
d="M208 45l-22 13l122 197l-122 198l22 12l134 -207v-6zM67 45l-22 13l122 197l-122 198l22 12l133 -207v-6z" />
    <glyph glyph-name="guilsinglleft" unicode="&#x2039;" horiz-adv-x="234" 
d="M167 45l-133 207v6l133 207l23 -12l-123 -197l123 -198z" />
    <glyph glyph-name="guilsinglright" unicode="&#x203a;" horiz-adv-x="234" 
d="M67 45l-22 13l122 197l-122 198l22 12l133 -207v-6z" />
    <glyph glyph-name="hyphen" unicode="-" horiz-adv-x="304" 
d="M51 281v30h202v-30h-202z" />
    <glyph glyph-name="endash" unicode="&#x2013;" horiz-adv-x="440" 
d="M51 281v30h338v-30h-338z" />
    <glyph glyph-name="emdash" unicode="&#x2014;" horiz-adv-x="680" 
d="M51 281v30h578v-30h-578z" />
    <glyph glyph-name="underscore" unicode="_" horiz-adv-x="491" 
d="M0 -152v24h491v-24h-491z" />
    <glyph glyph-name="slash" unicode="/" horiz-adv-x="330" 
d="M-6 -108l300 886h30l-301 -886h-29z" />
    <glyph glyph-name="backslash" unicode="\" horiz-adv-x="330" 
d="M307 -108l-301 886h30l300 -886h-29z" />
    <glyph glyph-name="bar" unicode="|" horiz-adv-x="231" 
d="M102 -108v886h27v-886h-27z" />
    <glyph glyph-name="parenleft" unicode="(" horiz-adv-x="287" 
d="M247 -129c-121 87 -198 227 -198 418s77 331 198 418l14 -21c-114 -87 -180 -218 -180 -397s66 -309 180 -397z" />
    <glyph glyph-name="parenright" unicode=")" horiz-adv-x="287" 
d="M40 -129l-14 21c115 88 181 218 181 397s-66 310 -181 397l14 21c122 -87 198 -227 198 -418s-76 -331 -198 -418z" />
    <glyph glyph-name="bracketleft" unicode="[" horiz-adv-x="303" 
d="M87 -130v830h172v-24h-142v-782h142v-24h-172z" />
    <glyph glyph-name="bracketright" unicode="]" horiz-adv-x="303" 
d="M44 -130v24h142v782h-142v24h172v-830h-172z" />
    <glyph glyph-name="braceleft" unicode="{" horiz-adv-x="324" 
d="M284 -139c-118 17 -150 72 -150 148c0 52 28 102 28 157c0 56 -34 110 -113 110h-13v25h13c79 0 113 53 113 110c0 55 -28 105 -28 157c0 76 32 131 150 147l4 -24c-95 -14 -123 -54 -123 -124c0 -51 27 -97 27 -154c0 -64 -36 -114 -98 -125c62 -10 98 -60 98 -124
c0 -57 -27 -103 -27 -154c0 -70 28 -111 123 -124z" />
    <glyph glyph-name="braceright" unicode="}" horiz-adv-x="324" 
d="M43 -139l-3 25c95 13 123 54 123 124c0 51 -28 97 -28 154c0 64 37 114 98 124c-61 11 -98 61 -98 125c0 57 28 103 28 154c0 70 -28 110 -123 124l3 24c119 -16 151 -71 151 -147c0 -52 -28 -102 -28 -157c0 -57 34 -110 113 -110h13v-25h-13c-79 0 -113 -54 -113 -110
c0 -55 28 -105 28 -157c0 -76 -32 -131 -151 -148z" />
    <glyph glyph-name="at" unicode="@" horiz-adv-x="742" 
d="M365 -142c-180 0 -320 136 -320 372c0 252 140 479 356 479c181 0 296 -154 296 -340c0 -161 -70 -295 -156 -295c-59 0 -89 49 -86 109c-30 -57 -76 -111 -139 -111c-66 0 -111 56 -111 148c0 147 82 281 180 281c58 0 94 -46 105 -104l16 87l29 -6l-46 -239
c-4 -23 -6 -47 -6 -66c0 -39 17 -74 61 -74c71 0 130 131 130 269c0 169 -104 320 -274 320c-205 0 -332 -229 -332 -455c0 -223 129 -354 297 -354c74 0 127 19 182 53l12 -18c-59 -37 -114 -56 -194 -56zM322 102c29 0 55 15 76 35c50 51 77 142 77 208
c0 69 -35 128 -88 128c-30 0 -55 -15 -75 -35c-48 -48 -76 -136 -76 -213c0 -80 31 -123 86 -123z" />
    <glyph glyph-name="copyright" unicode="&#xa9;" horiz-adv-x="623" 
d="M311 -11c-163 0 -275 158 -275 349v25c0 191 112 348 275 348c164 0 277 -156 277 -348v-25c0 -191 -113 -349 -277 -349zM311 10c154 0 256 149 256 328v25c0 179 -102 328 -256 328c-153 0 -254 -150 -254 -328v-25c0 -179 102 -328 254 -328zM320 156
c-69 0 -126 68 -126 193v6c0 121 56 192 128 192c34 0 58 -13 81 -34l-16 -20c-17 16 -38 28 -65 28c-56 0 -100 -62 -100 -165v-8c0 -105 44 -166 100 -166c27 0 49 14 67 32l16 -19c-23 -22 -50 -39 -85 -39z" />
    <glyph glyph-name="published" unicode="&#x2117;" horiz-adv-x="623" 
d="M311 -11c-163 0 -275 158 -275 349v25c0 191 112 348 275 348c164 0 277 -156 277 -348v-25c0 -191 -113 -349 -277 -349zM311 10c154 0 256 149 256 328v25c0 179 -102 328 -256 328c-153 0 -254 -150 -254 -328v-25c0 -179 102 -328 254 -328zM232 166v379h75
c73 0 122 -43 122 -119v-2c0 -77 -51 -123 -124 -123h-46v-135h-27zM259 327h47c57 0 97 34 97 95v2c0 64 -40 96 -96 96h-48v-193z" />
    <glyph glyph-name="registered.alt" horiz-adv-x="623" 
d="M311 -11c-163 0 -275 158 -275 349v25c0 191 112 348 275 348c164 0 277 -156 277 -348v-25c0 -191 -113 -349 -277 -349zM311 10c154 0 256 149 256 328v25c0 179 -102 328 -256 328c-153 0 -254 -150 -254 -328v-25c0 -179 102 -328 254 -328zM220 168v379h85
c41 0 74 -13 94 -36c17 -19 25 -44 25 -75v-3c0 -54 -29 -90 -75 -104l86 -161h-31l-81 154c-12 -1 -27 -1 -33 -1h-43v-153h-27zM247 345h55c60 0 95 32 95 87v3c0 59 -37 86 -93 86h-57v-176z" />
    <glyph glyph-name="registered" unicode="&#xae;" horiz-adv-x="347" 
d="M173 371c74 0 126 71 126 158v13c0 89 -51 158 -126 158c-73 0 -125 -72 -125 -158v-13c0 -87 51 -158 125 -158zM173 357c-82 0 -140 76 -140 172v13c0 95 59 173 140 173c83 0 141 -76 141 -173v-13c0 -94 -58 -172 -141 -172zM126 446v186h48c36 0 58 -21 58 -55v-1
c0 -31 -17 -47 -35 -53l41 -77h-19l-39 73c-6 -1 -14 -1 -17 -1h-19v-72h-18zM144 534h29c26 0 42 14 42 41v1c0 24 -16 40 -41 40h-30v-82z" />
    <glyph glyph-name="servicemark" unicode="&#x2120;" horiz-adv-x="498" 
d="M247 387v313h25l79 -180l79 180h25v-313h-22v270l-80 -184h-4l-81 184v-270h-21zM112 384c-35 0 -64 14 -87 39l14 16c21 -21 44 -35 73 -35c34 0 59 23 59 56c0 27 -12 46 -63 78c-49 32 -71 52 -71 92c0 42 34 74 81 74c34 0 56 -14 75 -29l-13 -18
c-17 14 -36 27 -64 27c-32 0 -55 -23 -55 -54c0 -28 15 -44 59 -72c53 -34 73 -59 73 -96c0 -47 -34 -78 -81 -78z" />
    <glyph glyph-name="trademark" unicode="&#x2122;" horiz-adv-x="471" 
d="M221 387v313h25l79 -180l79 180h25v-313h-22v270l-80 -184h-4l-81 184v-270h-21zM81 387v292h-69v21h159v-21h-69v-292h-21z" />
    <glyph glyph-name="asterisk" unicode="*" horiz-adv-x="325" 
d="M148 423l7 126l-93 -65l-16 25l102 54l-102 54l15 25l94 -65l-7 125h29l-8 -125l94 65l16 -25l-102 -54l102 -54l-16 -25l-94 65l8 -126h-29z" />
    <glyph glyph-name="dagger" unicode="&#x2020;" horiz-adv-x="293" 
d="M131 238l6 293l-97 -7v31l97 -7l-7 152h34l-7 -152l96 7v-31l-96 7l5 -293h-31z" />
    <glyph glyph-name="daggerdbl" unicode="&#x2021;" horiz-adv-x="302" 
d="M134 0l8 152l-98 -7v31l98 -7l-7 181l7 181l-98 -7v31l98 -7l-8 152h35l-8 -152l96 7v-31l-96 7l7 -181l-7 -181l96 7v-31l-96 7l7 -152h-34z" />
    <glyph glyph-name="dollar" unicode="$" horiz-adv-x="431" 
d="M372 643l-18 -25c-32 29 -73 54 -125 57v-301c116 -56 155 -113 155 -197v-2c0 -96 -63 -168 -154 -178v-96h-27v95c-67 2 -128 28 -173 81l21 23c42 -49 91 -74 152 -76v327c-100 48 -152 95 -152 187v2c0 87 62 154 152 162v63h27v-62c61 -2 106 -29 142 -60zM353 176
c0 71 -32 120 -124 164v-315c75 8 124 69 124 150v1zM82 539c0 -76 43 -116 121 -154v289c-73 -7 -121 -61 -121 -133v-2z" />
    <glyph glyph-name="sterling" unicode="&#xa3;" horiz-adv-x="415" 
d="M46 0v16l63 12v298h-66v27h66v153c0 74 11 125 48 162c25 26 60 40 101 40c61 0 103 -33 127 -66l-24 -19c-25 34 -60 56 -104 56c-29 0 -56 -8 -78 -30c-29 -30 -39 -78 -39 -142v-154h187v-27h-187v-297h247v-29h-341z" />
    <glyph glyph-name="Euro" unicode="&#x20ac;" horiz-adv-x="477" 
d="M435 643l-21 -21c-28 32 -63 55 -109 55c-92 0 -152 -88 -171 -226h206v-27h-209c-2 -22 -3 -46 -3 -69v-11c0 -20 0 -40 2 -59h210v-28h-207c18 -150 83 -234 171 -234c50 0 85 25 113 60l20 -20c-35 -42 -75 -69 -134 -69c-100 0 -183 86 -203 263h-73v28h71
c-2 19 -2 37 -2 58v13c0 23 1 45 3 68h-72v27h75c21 152 93 255 204 255c56 0 93 -24 129 -63z" />
    <glyph glyph-name="yen" unicode="&#xa5;" horiz-adv-x="444" 
d="M71 281v26h130l-183 393h35l169 -371l170 371h34l-184 -393h131v-26h-136v-116h136v-26h-136v-139h-30v139h-136v26h136v116h-136z" />
    <glyph glyph-name="cent" unicode="&#xa2;" horiz-adv-x="379" 
d="M253 704l-6 -86c40 -5 72 -23 97 -46l-18 -22c-18 16 -44 35 -81 40l-30 -478h13c42 0 75 18 100 43l17 -22c-31 -29 -70 -49 -118 -49h-14l-6 -89h-27l7 94c-84 22 -139 116 -139 260v6c0 161 72 259 172 264l5 85h28zM79 349c0 -128 44 -208 109 -231l30 472
c-80 -6 -139 -89 -139 -235v-6z" />
    <glyph glyph-name="numbersign" unicode="#" horiz-adv-x="479" 
d="M419 224v-29h-93l-21 -195h-27l21 195h-155l-20 -195h-28l21 195h-84v29h87l27 256h-88v28h91l21 192h27l-20 -192h155l20 192h27l-21 -192h86v-28h-89l-27 -256h90zM175 480l-28 -256h155l28 256h-155z" />
    <glyph glyph-name="paragraph" unicode="&#xb6;" horiz-adv-x="367" 
d="M262 0v264h-2c-139 0 -227 85 -227 218v2c0 133 87 216 219 216h42v-700h-32z" />
    <glyph glyph-name="section" unicode="&#xa7;" horiz-adv-x="445" 
d="M253 225c71 -37 96 -75 96 -119v-2c0 -65 -55 -111 -133 -111c-53 0 -97 18 -131 45l17 24c31 -23 67 -41 116 -41c61 0 99 34 99 83v2c0 46 -36 80 -135 120c-110 46 -142 84 -142 137v1c0 57 49 111 153 113c-71 36 -97 74 -97 118v2c0 65 56 112 134 112
c52 0 97 -19 130 -46l-17 -24c-30 23 -66 41 -116 41c-60 0 -99 -34 -99 -83v-2c0 -46 37 -79 136 -120c109 -45 141 -83 141 -136v-2c0 -56 -48 -111 -152 -112zM255 246c63 0 119 32 119 90v3c0 39 -26 69 -94 98c-37 15 -67 18 -89 18c-63 0 -120 -32 -120 -90v-3
c0 -39 27 -68 95 -98c36 -15 66 -18 89 -18z" />
    <glyph glyph-name="ordfeminine" unicode="&#xaa;" horiz-adv-x="293" 
d="M131 406c-41 0 -77 32 -77 89v3c0 55 34 90 90 90c25 0 43 -5 60 -11v28c0 47 -20 73 -63 73c-23 0 -44 -8 -62 -18l-9 22c22 11 45 19 73 19s49 -8 63 -23c15 -16 22 -40 22 -71v-195h-24v41c-15 -26 -38 -47 -73 -47zM134 428c39 0 70 37 70 76v52c-17 6 -35 10 -59 10
c-42 0 -66 -27 -66 -67v-3c0 -43 23 -68 55 -68zM53 323v22h184v-22h-184z" />
    <glyph glyph-name="ordmasculine" unicode="&#xba;" horiz-adv-x="295" 
d="M147 406c-61 0 -99 64 -99 145v8c0 88 42 145 100 145c59 0 100 -58 100 -145v-8c0 -81 -39 -145 -101 -145zM51 323v22h194v-22h-194zM148 430c47 0 74 52 74 121v8c0 69 -28 121 -75 121c-46 0 -73 -52 -73 -121v-8c0 -69 28 -121 74 -121z" />
    <glyph glyph-name="degree" unicode="&#xb0;" horiz-adv-x="308" 
d="M154 408c-63 0 -111 61 -111 146v6c0 89 48 147 111 147c62 0 111 -58 111 -147v-6c0 -86 -49 -146 -111 -146zM154 434c46 0 83 46 83 120v6c0 76 -37 121 -83 121c-47 0 -84 -45 -84 -121v-6c0 -73 37 -120 84 -120z" />
    <glyph glyph-name="percent" unicode="%" horiz-adv-x="598" 
d="M155 365c-68 0 -117 68 -117 168v6c0 99 50 167 117 167s117 -68 117 -167v-6c0 -100 -50 -168 -117 -168zM155 679c-50 0 -88 -54 -88 -140v-6c0 -88 39 -141 88 -141c50 0 88 53 88 140v6c0 88 -40 141 -88 141zM288 355l186 345h29l-194 -357l-185 -343h-29zM443 -6
c-67 0 -116 68 -116 167v6c0 100 49 168 116 168c68 0 117 -68 117 -168v-6c0 -99 -49 -167 -117 -167zM443 21c50 0 88 53 88 140v6c0 88 -39 141 -88 141c-50 0 -88 -54 -88 -140v-6c0 -88 40 -141 88 -141z" />
    <glyph glyph-name="perthousand" unicode="&#x2030;" horiz-adv-x="886" 
d="M155 392c50 0 88 53 88 140v6c0 88 -40 141 -88 141c-50 0 -88 -54 -88 -140v-6c0 -88 39 -141 88 -141zM155 365c-68 0 -117 68 -117 168v6c0 99 50 167 117 167s117 -68 117 -167v-6c0 -100 -50 -168 -117 -168zM503 700l-194 -357l-185 -343h-29l193 355l186 345h29z
M443 21c50 0 88 53 88 140v6c0 88 -39 141 -88 141c-50 0 -88 -54 -88 -140v-6c0 -88 40 -141 88 -141zM443 -6c-67 0 -116 68 -116 167v6c0 100 49 168 116 168c68 0 117 -68 117 -168v-6c0 -99 -49 -167 -117 -167zM732 21c50 0 88 53 88 140v6c0 88 -40 141 -89 141
c-50 0 -87 -54 -87 -140v-6c0 -88 39 -141 88 -141zM732 -6c-67 0 -117 68 -117 167v6c0 100 50 168 117 168c68 0 117 -68 117 -168v-6c0 -99 -49 -167 -117 -167z" />
    <glyph glyph-name="quotedbl" unicode="&#x22;" horiz-adv-x="264" 
d="M173 454l11 246h37v-7l-32 -239h-16zM53 454l11 246h37v-7l-32 -239h-16z" />
    <glyph glyph-name="quotesingle" unicode="'" horiz-adv-x="137" 
d="M53 454l11 246h37v-7l-32 -239h-16z" />
    <glyph glyph-name="plus" unicode="+" horiz-adv-x="427" 
d="M199 176v162h-154v28h154v162h29v-162h154v-28h-154v-162h-29z" />
    <glyph glyph-name="minus" unicode="&#x2212;" horiz-adv-x="427" 
d="M382 337h-337v30h337v-30z" />
    <glyph glyph-name="divide" unicode="&#xf7;" horiz-adv-x="427" 
d="M192 475v58h43v-58h-43zM382 337h-337v30h337v-30zM192 171v58h43v-58h-43z" />
    <glyph glyph-name="equal" unicode="=" horiz-adv-x="427" 
d="M54 421v31h319v-31h-319zM54 252v31h319v-31h-319z" />
    <glyph glyph-name="multiply" unicode="&#xd7;" horiz-adv-x="426" 
d="M336 198l-124 134l-125 -134l-21 20l127 134l-127 133l22 21l124 -134l125 134l21 -20l-127 -134l127 -133z" />
    <glyph glyph-name="less" unicode="&#x3c;" horiz-adv-x="433" 
d="M367 161l-318 179v24l318 179v-35l-281 -156l281 -156v-35z" />
    <glyph glyph-name="greater" unicode="&#x3e;" horiz-adv-x="433" 
d="M66 161v35l281 156l-281 156v35l317 -179v-24z" />
    <glyph glyph-name="plusminus" unicode="&#xb1;" horiz-adv-x="427" 
d="M381 348h-153v-157h-29v157h-153v28h153v156h29v-156h153v-28zM381 70h-335v28h335v-28z" />
    <glyph glyph-name="space" unicode=" " horiz-adv-x="194" 
 />
    <glyph glyph-name="uni00A0" unicode="&#xa0;" horiz-adv-x="194" 
 />
    <glyph glyph-name="emspace" unicode="&#x2003;" horiz-adv-x="1000" 
 />
    <glyph glyph-name="enspace" unicode="&#x2002;" horiz-adv-x="500" 
 />
    <glyph glyph-name="threeperemspace" unicode="&#x2004;" horiz-adv-x="333" 
 />
    <glyph glyph-name="fourperemspace" unicode="&#x2005;" horiz-adv-x="250" 
 />
    <glyph glyph-name="thinspace" unicode="&#x2009;" horiz-adv-x="111" 
 />
    <glyph glyph-name="hairspace" unicode="&#x200a;" horiz-adv-x="58" 
 />
    <glyph glyph-name="asciicircum" unicode="^" horiz-adv-x="370" 
d="M75 520l98 171h24l97 -171h-27l-83 138l-82 -138h-27z" />
    <glyph glyph-name="asciitilde" unicode="~" horiz-adv-x="349" 
d="M224 255c-18 0 -33 9 -53 26c-20 16 -31 25 -44 25c-18 0 -30 -18 -40 -51l-21 5c12 48 31 74 60 74c18 0 35 -12 55 -27c20 -17 32 -24 42 -24c17 0 29 18 39 52l22 -6c-12 -48 -32 -74 -60 -74z" />
    <glyph glyph-name="NUL" horiz-adv-x="0" 
 />
    <glyph glyph-name="hfjslug" horiz-adv-x="699" 
d="M646 -200h-208l-8 14h-163l-8 -14h-207v303c18 0 32 14 32 32c0 17 -14 32 -32 32v554h100l30 79h334l29 -79h101v-921zM402 563v-172h15v78h38v14h-38v66h43v14h-58zM186 563v-172h15v79h47v-79h15v172h-15v-79h-47v79h-15zM462 394c5 -2 14 -4 21 -4c20 0 31 11 31 36
v137h-16v-137c0 -16 -5 -22 -16 -22c-6 0 -15 3 -20 5v-15zM373 465l-13 3c-2 -9 -5 -21 -8 -30h-1l-16 31c13 12 23 26 23 42c0 17 -9 31 -27 31c-17 0 -28 -14 -28 -31c0 -15 6 -24 14 -39c-15 -12 -23 -28 -23 -47c0 -22 12 -37 29 -37c13 0 23 9 29 24h1l12 -24l12 6
l-17 32c5 12 9 25 13 39zM525 323v-46h8v12l8 8l15 -20h10l-20 26l18 20h-10l-20 -24h-1v24h-8zM490 292l10 -15h9l-12 17c5 2 10 6 10 14c0 9 -7 15 -17 15h-20v-46h8v15h12zM428 276c14 0 24 11 24 24c0 12 -10 24 -24 24s-24 -12 -24 -24c0 -13 10 -24 24 -24zM372 301
l-13 22h-9l18 -29v-17h8v17l18 29h-9zM195 323v-46h34v7h-26v13h23v7h-23v12h26v7h-34zM134 323v-46h8v32l25 -32h7v46h-8v-32l-25 32h-7zM243 323l14 -47h8l11 34h1l11 -34h8l14 47h-8l-10 -35h-1l-11 35h-7l-11 -35h-1l-10 35h-8zM329 479c-7 13 -12 22 -12 32
c0 11 6 19 14 19s13 -8 13 -19c0 -12 -5 -21 -15 -32zM344 423c-5 -13 -12 -21 -20 -21c-9 0 -16 10 -16 25c0 13 7 26 16 35zM489 299h-11v17h11c6 0 10 -3 10 -8s-4 -9 -10 -9zM428 283c-10 0 -16 8 -16 17c0 8 6 17 16 17s16 -9 16 -17c0 -9 -6 -17 -16 -17z" />
    <glyph glyph-name="i.dot" horiz-adv-x="173" 
d="M69 644v62h35v-62h-35zM72 0v518h30v-518h-30z" />
    <glyph glyph-name="acute" unicode="&#xb4;" 
d="M201 581l72 121l34 -17l-86 -104h-20z" />
    <glyph glyph-name="hungarumlaut" unicode="&#x2dd;" 
d="M242 581l71 121l33 -16l-84 -105h-20zM151 581l72 121l32 -16l-84 -105h-20z" />
    <glyph glyph-name="caron.alt" 
d="M214 565l10 149h31v-3l-27 -146h-14z" />
    <glyph glyph-name="grave" unicode="`" 
d="M285 581l-87 104l34 17l72 -121h-19z" />
    <glyph glyph-name="circumflex" unicode="&#x2c6;" 
d="M163 585l77 120h24l77 -120h-25l-65 86l-63 -86h-25z" />
    <glyph glyph-name="caron" unicode="&#x2c7;" 
d="M342 705l-78 -120h-23l-77 120h25l64 -86l64 86h25z" />
    <glyph glyph-name="breve" unicode="&#x2d8;" 
d="M252 583c-58 0 -95 37 -102 97h25c8 -38 30 -69 77 -69c48 0 70 31 78 69h25c-7 -60 -44 -97 -103 -97z" />
    <glyph glyph-name="tilde" unicode="&#x2dc;" 
d="M300 588c-18 0 -33 11 -51 26c-20 16 -32 25 -44 25c-16 0 -27 -16 -38 -52l-22 6c12 47 31 74 60 74c19 0 34 -11 53 -28c20 -16 31 -23 41 -23c17 0 28 16 39 52l21 -6c-12 -47 -30 -74 -59 -74z" />
    <glyph glyph-name="macron" unicode="&#xaf;" 
d="M154 597v28h197v-28h-197z" />
    <glyph glyph-name="dieresis" unicode="&#xa8;" 
d="M284 591v52h38v-52h-38zM182 591v52h39v-52h-39z" />
    <glyph glyph-name="dotaccent" unicode="&#x2d9;" 
d="M232 591v53h40v-53h-40z" />
    <glyph glyph-name="ring" unicode="&#x2da;" 
d="M252 586c-46 0 -80 35 -80 80c0 44 35 79 81 79c45 0 79 -35 79 -79c0 -45 -34 -80 -80 -80zM252 605c35 0 59 26 59 61c0 34 -24 60 -59 60c-34 0 -59 -26 -59 -60c0 -35 25 -61 59 -61z" />
    <glyph glyph-name="acute.cap" 
d="M200 748l73 103l34 -16l-85 -87h-22z" />
    <glyph glyph-name="hungarumlaut.cap" 
d="M147 748l73 103l33 -16l-85 -87h-21zM240 748l72 103l34 -16l-83 -87h-23z" />
    <glyph glyph-name="grave.cap" 
d="M305 748h-22l-85 87l34 16z" />
    <glyph glyph-name="circumflex.cap" 
d="M157 751l82 99h27l81 -99h-29l-67 69l-66 -69h-28z" />
    <glyph glyph-name="caron.cap" 
d="M347 850l-81 -99h-27l-82 99h29l66 -68l67 68h28z" />
    <glyph glyph-name="breve.cap" 
d="M252 750c-56 0 -97 29 -105 82h27c8 -32 32 -54 78 -54s71 22 79 54h26c-7 -53 -48 -82 -105 -82z" />
    <glyph glyph-name="tilde.cap" 
d="M305 754c-19 0 -35 10 -56 22c-19 11 -35 22 -46 22c-18 0 -29 -14 -39 -44l-23 5c13 43 33 67 61 67c19 0 37 -11 57 -24c20 -11 33 -19 44 -19c18 0 28 13 40 44l22 -6c-13 -43 -33 -67 -60 -67z" />
    <glyph glyph-name="macron.cap" 
d="M147 765v28h210v-28h-210z" />
    <glyph glyph-name="dieresis.cap" 
d="M287 759v51h40v-51h-40zM177 759v51h41v-51h-41z" />
    <glyph glyph-name="dotaccent.cap" 
d="M231 759v51h42v-51h-42z" />
    <glyph glyph-name="ring.cap" 
d="M252 751c-48 0 -83 34 -83 77s36 77 84 77s83 -34 83 -77s-36 -77 -84 -77zM252 771c35 0 61 25 61 57s-26 57 -61 57s-60 -25 -60 -57s25 -57 60 -57z" />
    <glyph glyph-name="commaaccent" unicode="&#x326;" 
d="M232 -185l-9 16c21 10 30 23 29 49h-17v55h40v-49c0 -41 -14 -59 -43 -71z" />
    <glyph glyph-name="cedilla" unicode="&#xb8;" 
d="M223 -117l-33 14l67 112h21z" />
    <glyph glyph-name="ogonek" unicode="&#x2db;" 
d="M297 -103v-22c-6 -1 -10 -1 -12 -1c-48 0 -71 21 -71 51c0 25 18 51 50 82l19 -4c-30 -34 -40 -54 -40 -73c0 -21 14 -32 54 -33z" />
    </font>
</defs>
</svg>
